<svg width="57" height="56" viewBox="0 0 57 56" fill="none" xmlns="http://www.w3.org/2000/svg">
<rect x="4.66602" y="4" width="48" height="48" rx="20" fill="#C7EEFD"/>
<rect x="4.66602" y="4" width="48" height="48" rx="20" stroke="#ECF9FE" stroke-width="8"/>
<path d="M18.666 23L26.8309 28.7154C27.4921 29.1783 27.8227 29.4097 28.1823 29.4993C28.4999 29.5785 28.8321 29.5785 29.1498 29.4993C29.5093 29.4097 29.8399 29.1783 30.5011 28.7154L38.666 23M23.466 36H33.866C35.5462 36 36.3863 36 37.028 35.673C37.5925 35.3854 38.0514 34.9265 38.339 34.362C38.666 33.7202 38.666 32.8802 38.666 31.2V24.8C38.666 23.1198 38.666 22.2798 38.339 21.638C38.0514 21.0735 37.5925 20.6146 37.028 20.327C36.3863 20 35.5462 20 33.866 20H23.466C21.7859 20 20.9458 20 20.304 20.327C19.7396 20.6146 19.2806 21.0735 18.993 21.638C18.666 22.2798 18.666 23.1198 18.666 24.8V31.2C18.666 32.8802 18.666 33.7202 18.993 34.362C19.2806 34.9265 19.7396 35.3854 20.304 35.673C20.9458 36 21.7859 36 23.466 36Z" stroke="#5532D5" stroke-width="2" stroke-linecap="round" stroke-linejoin="round"/>
</svg>
