<svg width="57" height="56" viewBox="0 0 57 56" fill="none" xmlns="http://www.w3.org/2000/svg">
<rect x="4.33203" y="4" width="48" height="48" rx="20" fill="#C7EEFD"/>
<rect x="4.33203" y="4" width="48" height="48" rx="20" stroke="#ECF9FE" stroke-width="8"/>
<path d="M24.7123 24.8534C25.4083 26.303 26.3571 27.6616 27.5587 28.8632C28.7603 30.0648 30.1189 31.0136 31.5685 31.7096C31.6932 31.7694 31.7555 31.7994 31.8344 31.8224C32.1148 31.9041 32.4591 31.8454 32.6965 31.6754C32.7633 31.6275 32.8204 31.5704 32.9348 31.4561C33.2844 31.1064 33.4592 30.9316 33.6349 30.8174C34.2978 30.3864 35.1524 30.3864 35.8153 30.8174C35.9911 30.9316 36.1659 31.1064 36.5155 31.4561L36.7104 31.6509C37.2418 32.1824 37.5075 32.4481 37.6519 32.7335C37.9389 33.301 37.9389 33.9713 37.6519 34.5389C37.5075 34.8242 37.2418 35.09 36.7104 35.6214L36.5527 35.779C36.0231 36.3087 35.7583 36.5735 35.3983 36.7757C34.9988 37.0001 34.3783 37.1615 33.92 37.1601C33.5071 37.1589 33.2249 37.0788 32.6604 36.9186C29.627 36.0576 26.7647 34.4332 24.3767 32.0452C21.9887 29.6572 20.3642 26.7948 19.5033 23.7614C19.3431 23.197 19.263 22.9148 19.2617 22.5018C19.2604 22.0436 19.4217 21.4231 19.6461 21.0236C19.8484 20.6636 20.1132 20.3988 20.6428 19.8691L20.8005 19.7115C21.3319 19.1801 21.5976 18.9143 21.883 18.77C22.4506 18.4829 23.1208 18.4829 23.6884 18.77C23.9738 18.9143 24.2395 19.1801 24.7709 19.7115L24.9658 19.9064C25.3154 20.256 25.4902 20.4308 25.6045 20.6066C26.0355 21.2694 26.0355 22.124 25.6045 22.7869C25.4902 22.9627 25.3154 23.1375 24.9658 23.4871C24.8515 23.6014 24.7943 23.6586 24.7465 23.7254C24.5765 23.9628 24.5178 24.3071 24.5995 24.5874C24.6225 24.6663 24.6524 24.7287 24.7123 24.8534Z" stroke="#5532D5" stroke-width="2" stroke-linecap="round" stroke-linejoin="round"/>
</svg>
