<svg width="57" height="57" viewBox="0 0 57 57" fill="none" xmlns="http://www.w3.org/2000/svg">
<rect x="4.1543" y="4.5" width="48" height="48" rx="20" fill="#C7EEFD"/>
<rect x="4.1543" y="4.5" width="48" height="48" rx="20" stroke="#ECF9FE" stroke-width="8"/>
<path d="M19.3242 24.4404L28.1542 29.5504L36.9242 24.4704" stroke="#5532D5" stroke-width="1.5" stroke-linecap="round" stroke-linejoin="round"/>
<path d="M28.1543 38.61V29.54" stroke="#5532D5" stroke-width="1.5" stroke-linecap="round" stroke-linejoin="round"/>
<path d="M26.0844 19.4803L20.7444 22.4403C19.5344 23.1103 18.5444 24.7903 18.5444 26.1703V31.8203C18.5444 33.2003 19.5344 34.8803 20.7444 35.5503L26.0844 38.5203C27.2244 39.1503 29.0944 39.1503 30.2344 38.5203L35.5744 35.5503C36.7844 34.8803 37.7744 33.2003 37.7744 31.8203V26.1703C37.7744 24.7903 36.7844 23.1103 35.5744 22.4403L30.2344 19.4703C29.0844 18.8403 27.2244 18.8403 26.0844 19.4803Z" stroke="#5532D5" stroke-width="1.5" stroke-linecap="round" stroke-linejoin="round"/>
</svg>
