<svg width="57" height="57" viewBox="0 0 57 57" fill="none" xmlns="http://www.w3.org/2000/svg">
<rect x="4.1543" y="4.5" width="48" height="48" rx="20" fill="#C7EEFD"/>
<rect x="4.1543" y="4.5" width="48" height="48" rx="20" stroke="#ECF9FE" stroke-width="8"/>
<path d="M36.1543 23.5V33.5C36.1543 37.5 35.1543 38.5 31.1543 38.5H25.1543C21.1543 38.5 20.1543 37.5 20.1543 33.5V23.5C20.1543 19.5 21.1543 18.5 25.1543 18.5H31.1543C35.1543 18.5 36.1543 19.5 36.1543 23.5Z" stroke="#5532D5" stroke-width="2" stroke-linecap="round" stroke-linejoin="round"/>
<path d="M30.1543 22H26.1543" stroke="#5532D5" stroke-width="2" stroke-linecap="round" stroke-linejoin="round"/>
<path d="M28.1542 35.6C29.0103 35.6 29.7042 34.906 29.7042 34.05C29.7042 33.194 29.0103 32.5 28.1542 32.5C27.2982 32.5 26.6042 33.194 26.6042 34.05C26.6042 34.906 27.2982 35.6 28.1542 35.6Z" stroke="#5532D5" stroke-width="2" stroke-linecap="round" stroke-linejoin="round"/>
</svg>
