<svg width="57" height="56" viewBox="0 0 57 56" fill="none" xmlns="http://www.w3.org/2000/svg">
<rect x="4.1543" y="4" width="48" height="48" rx="20" fill="#ECF9FE"/>
<rect x="4.1543" y="4" width="48" height="48" rx="20" stroke="#ECF9FE" stroke-width="8"/>
<path d="M35.4552 23.9195V29.0695C35.4552 32.1495 33.6952 33.4695 31.0552 33.4695H22.2652C21.8152 33.4695 21.3852 33.4295 20.9852 33.3395C20.7352 33.2995 20.4952 33.2295 20.2752 33.1495C18.7752 32.5895 17.8652 31.2895 17.8652 29.0695V23.9195C17.8652 20.8395 19.6252 19.5195 22.2652 19.5195H31.0552C33.2952 19.5195 34.9052 20.4695 35.3352 22.6395C35.4052 23.0395 35.4552 23.4495 35.4552 23.9195Z" stroke="#5532D5" stroke-width="1.5" stroke-miterlimit="10" stroke-linecap="round" stroke-linejoin="round"/>
<path d="M38.4563 26.9196V32.0696C38.4563 35.1496 36.6963 36.4696 34.0563 36.4696H25.2663C24.5263 36.4696 23.8563 36.3697 23.2763 36.1497C22.0863 35.7097 21.2763 34.7997 20.9863 33.3397C21.3863 33.4297 21.8163 33.4696 22.2663 33.4696H31.0563C33.6963 33.4696 35.4563 32.1496 35.4563 29.0696V23.9196C35.4563 23.4496 35.4163 23.0296 35.3363 22.6396C37.2363 23.0396 38.4563 24.3796 38.4563 26.9196Z" stroke="#5532D5" stroke-width="1.5" stroke-miterlimit="10" stroke-linecap="round" stroke-linejoin="round"/>
<path d="M26.6537 29.1394C28.1117 29.1394 29.2937 27.9574 29.2937 26.4994C29.2937 25.0414 28.1117 23.8594 26.6537 23.8594C25.1957 23.8594 24.0137 25.0414 24.0137 26.4994C24.0137 27.9574 25.1957 29.1394 26.6537 29.1394Z" stroke="#5532D5" stroke-width="1.5" stroke-miterlimit="10" stroke-linecap="round" stroke-linejoin="round"/>
<path d="M20.9355 24.2998V28.6998" stroke="#5532D5" stroke-width="1.5" stroke-miterlimit="10" stroke-linecap="round" stroke-linejoin="round"/>
<path d="M32.377 24.2998V28.6998" stroke="#5532D5" stroke-width="1.5" stroke-miterlimit="10" stroke-linecap="round" stroke-linejoin="round"/>
</svg>
