<svg width="57" height="56" viewBox="0 0 57 56" fill="none" xmlns="http://www.w3.org/2000/svg">
<rect x="4.1543" y="4" width="48" height="48" rx="20" fill="#ECF9FE"/>
<rect x="4.1543" y="4" width="48" height="48" rx="20" stroke="#ECF9FE" stroke-width="8"/>
<path d="M34.1343 26.79V30.79C34.1343 31.05 34.1243 31.3 34.0943 31.54C33.8643 34.24 32.2743 35.58 29.3443 35.58H28.9443C28.6943 35.58 28.4543 35.7 28.3043 35.9L27.1043 37.5C26.5743 38.21 25.7143 38.21 25.1843 37.5L23.9843 35.9C23.8543 35.73 23.5643 35.58 23.3443 35.58H22.9443C19.7543 35.58 18.1543 34.79 18.1543 30.79V26.79C18.1543 23.86 19.5043 22.27 22.1943 22.04C22.4343 22.01 22.6843 22 22.9443 22H29.3443C32.5343 22 34.1343 23.6 34.1343 26.79Z" stroke="#5532D5" stroke-width="1.5" stroke-miterlimit="10" stroke-linecap="round" stroke-linejoin="round"/>
<path d="M38.1334 22.79V26.79C38.1334 29.73 36.7834 31.31 34.0934 31.54C34.1234 31.3 34.1334 31.05 34.1334 30.79V26.79C34.1334 23.6 32.5334 22 29.3434 22H22.9434C22.6834 22 22.4334 22.01 22.1934 22.04C22.4234 19.35 24.0134 18 26.9434 18H33.3434C36.5334 18 38.1334 19.6 38.1334 22.79Z" stroke="#5532D5" stroke-width="1.5" stroke-miterlimit="10" stroke-linecap="round" stroke-linejoin="round"/>
<path d="M29.6498 29.25H29.6588" stroke="#5532D5" stroke-width="2" stroke-linecap="round" stroke-linejoin="round"/>
<path d="M26.1498 29.25H26.1588" stroke="#5532D5" stroke-width="2" stroke-linecap="round" stroke-linejoin="round"/>
<path d="M22.6498 29.25H22.6588" stroke="#5532D5" stroke-width="2" stroke-linecap="round" stroke-linejoin="round"/>
</svg>
