<svg width="57" height="56" viewBox="0 0 57 56" fill="none" xmlns="http://www.w3.org/2000/svg">
<rect x="4.1543" y="4" width="48" height="48" rx="20" fill="#ECF9FE"/>
<rect x="4.1543" y="4" width="48" height="48" rx="20" stroke="#ECF9FE" stroke-width="8"/>
<path d="M33.1543 33C35.9157 33 38.1543 30.7614 38.1543 28C38.1543 25.2386 35.9157 23 33.1543 23C30.3929 23 28.1543 25.2386 28.1543 28C28.1543 30.7614 30.3929 33 33.1543 33Z" stroke="#5532D5" stroke-width="1.5" stroke-miterlimit="10" stroke-linecap="round" stroke-linejoin="round"/>
<path d="M28.1543 38C30.9157 38 33.1543 35.7614 33.1543 33C33.1543 30.2386 30.9157 28 28.1543 28C25.3929 28 23.1543 30.2386 23.1543 33C23.1543 35.7614 25.3929 38 28.1543 38Z" stroke="#5532D5" stroke-width="1.5" stroke-miterlimit="10" stroke-linecap="round" stroke-linejoin="round"/>
<path d="M28.1543 28C30.9157 28 33.1543 25.7614 33.1543 23C33.1543 20.2386 30.9157 18 28.1543 18C25.3929 18 23.1543 20.2386 23.1543 23C23.1543 25.7614 25.3929 28 28.1543 28Z" stroke="#5532D5" stroke-width="1.5" stroke-miterlimit="10" stroke-linecap="round" stroke-linejoin="round"/>
<path d="M23.1543 33C25.9157 33 28.1543 30.7614 28.1543 28C28.1543 25.2386 25.9157 23 23.1543 23C20.3929 23 18.1543 25.2386 18.1543 28C18.1543 30.7614 20.3929 33 23.1543 33Z" stroke="#5532D5" stroke-width="1.5" stroke-miterlimit="10" stroke-linecap="round" stroke-linejoin="round"/>
</svg>
