<svg width="57" height="56" viewBox="0 0 57 56" fill="none" xmlns="http://www.w3.org/2000/svg">
<rect x="4.1543" y="4" width="48" height="48" rx="20" fill="#ECF9FE"/>
<rect x="4.1543" y="4" width="48" height="48" rx="20" stroke="#ECF9FE" stroke-width="8"/>
<path d="M31.6643 18.3301H24.6443C22.1543 18.3301 21.6043 19.5701 21.2843 21.0901L20.1543 26.5001H36.1543L35.0243 21.0901C34.7043 19.5701 34.1543 18.3301 31.6643 18.3301Z" stroke="#5532D5" stroke-width="2" stroke-linecap="round" stroke-linejoin="round"/>
<path d="M38.145 35.32C38.255 36.49 37.315 37.5 36.115 37.5H34.235C33.155 37.5 33.005 37.04 32.815 36.47L32.615 35.87C32.335 35.05 32.155 34.5 30.715 34.5H25.595C24.155 34.5 23.945 35.12 23.695 35.87L23.495 36.47C23.305 37.04 23.155 37.5 22.075 37.5H20.195C18.995 37.5 18.055 36.49 18.165 35.32L18.725 29.23C18.865 27.73 19.155 26.5 21.775 26.5H34.535C37.155 26.5 37.445 27.73 37.585 29.23L38.145 35.32Z" stroke="#5532D5" stroke-width="2" stroke-linecap="round" stroke-linejoin="round"/>
<path d="M20.1543 23.5H19.1543" stroke="#5532D5" stroke-width="2" stroke-linecap="round" stroke-linejoin="round"/>
<path d="M37.1543 23.5H36.1543" stroke="#5532D5" stroke-width="1.5" stroke-linecap="round" stroke-linejoin="round"/>
<path d="M28.1543 18.5V20.5" stroke="#5532D5" stroke-width="1.5" stroke-linecap="round" stroke-linejoin="round"/>
<path d="M26.6543 20.5H29.6543" stroke="#5532D5" stroke-width="1.5" stroke-linecap="round" stroke-linejoin="round"/>
<path d="M22.1543 30.5H25.1543" stroke="#5532D5" stroke-width="1.5" stroke-linecap="round" stroke-linejoin="round"/>
<path d="M31.1543 30.5H34.1543" stroke="#5532D5" stroke-width="1.5" stroke-linecap="round" stroke-linejoin="round"/>
</svg>
