<svg width="57" height="56" viewBox="0 0 57 56" fill="none" xmlns="http://www.w3.org/2000/svg">
<rect x="4.1543" y="4" width="48" height="48" rx="20" fill="#ECF9FE"/>
<rect x="4.1543" y="4" width="48" height="48" rx="20" stroke="#ECF9FE" stroke-width="8"/>
<path d="M34.1543 34.8597H33.3943C32.5943 34.8597 31.8343 35.1697 31.2743 35.7297L29.5643 37.4198C28.7843 38.1898 27.5143 38.1898 26.7343 37.4198L25.0243 35.7297C24.4643 35.1697 23.6943 34.8597 22.9043 34.8597H22.1543C20.4943 34.8597 19.1543 33.5298 19.1543 31.8898V20.9797C19.1543 19.3397 20.4943 18.0098 22.1543 18.0098H34.1543C35.8143 18.0098 37.1543 19.3397 37.1543 20.9797V31.8898C37.1543 33.5198 35.8143 34.8597 34.1543 34.8597Z" stroke="#5532D5" stroke-width="2" stroke-miterlimit="10" stroke-linecap="round" stroke-linejoin="round"/>
<path d="M23.1543 25.1598C23.1543 24.2298 23.9143 23.4697 24.8443 23.4697C25.7743 23.4697 26.5343 24.2298 26.5343 25.1598C26.5343 27.0398 23.8643 27.2398 23.2743 29.0298C23.1543 29.3998 23.4643 29.7698 23.8543 29.7698H26.5343" stroke="#5532D5" stroke-width="2" stroke-linecap="round" stroke-linejoin="round"/>
<path d="M32.1941 29.7599V24.0499C32.1941 23.7899 32.0241 23.5598 31.7741 23.4898C31.5241 23.4198 31.2541 23.5198 31.1141 23.7398C30.3941 24.8998 29.6141 26.2199 28.9341 27.3799C28.8241 27.5699 28.8241 27.8199 28.9341 28.0099C29.0441 28.1999 29.2541 28.3198 29.4841 28.3198H33.1541" stroke="#5532D5" stroke-width="2" stroke-linecap="round" stroke-linejoin="round"/>
</svg>
