<svg width="56" height="56" viewBox="0 0 56 56" fill="none" xmlns="http://www.w3.org/2000/svg">
<rect x="4" y="4" width="48" height="48" rx="20" fill="#C7EEFD"/>
<rect x="4" y="4" width="48" height="48" rx="20" stroke="#ECF9FE" stroke-width="8"/>
<path d="M26.7509 18.4503C27.4409 17.8603 28.5708 17.8603 29.2708 18.4503L30.8509 19.8104C31.1509 20.0704 31.7108 20.2804 32.1108 20.2804H33.8109C34.8709 20.2804 35.7408 21.1503 35.7408 22.2103V23.9104C35.7408 24.3004 35.9508 24.8704 36.2108 25.1704L37.5709 26.7504C38.1609 27.4404 38.1609 28.5704 37.5709 29.2704L36.2108 30.8503C35.9508 31.1503 35.7408 31.7103 35.7408 32.1103V33.8104C35.7408 34.8704 34.8709 35.7404 33.8109 35.7404H32.1108C31.7208 35.7404 31.1509 35.9503 30.8509 36.2103L29.2708 37.5703C28.5808 38.1603 27.4509 38.1603 26.7509 37.5703L25.1709 36.2103C24.8709 35.9503 24.3109 35.7404 23.9109 35.7404H22.1808C21.1208 35.7404 20.2509 34.8704 20.2509 33.8104V32.1003C20.2509 31.7103 20.0409 31.1503 19.7909 30.8503L18.4409 29.2604C17.8609 28.5704 17.8609 27.4504 18.4409 26.7604L19.7909 25.1704C20.0409 24.8704 20.2509 24.3104 20.2509 23.9204V22.2103C20.2509 21.1503 21.1208 20.2804 22.1808 20.2804H23.9109C24.3009 20.2804 24.8709 20.0704 25.1709 19.8104L26.7509 18.4503Z" stroke="#5532D5" stroke-width="2" stroke-linecap="round" stroke-linejoin="round"/>
<path d="M25.8892 30.82L27.3391 31.94C27.5291 32.13 27.9492 32.22 28.2292 32.22H29.9991C30.5591 32.22 31.1691 31.8 31.3091 31.24L32.4291 27.82C32.6591 27.17 32.2392 26.6 31.5392 26.6H29.6692C29.3892 26.6 29.1592 26.3701 29.1992 26.0401L29.4291 24.5401C29.5191 24.1201 29.2392 23.65 28.8192 23.51C28.4492 23.37 27.9792 23.56 27.7892 23.84L25.8691 26.69" stroke="#5532D5" stroke-width="2" stroke-miterlimit="10"/>
<path d="M23.5 30.8196V26.2396C23.5 25.5796 23.78 25.3496 24.44 25.3496H24.91C25.56 25.3496 25.85 25.5796 25.85 26.2396V30.8196C25.85 31.4696 25.57 31.7096 24.91 31.7096H24.44C23.78 31.7096 23.5 31.4796 23.5 30.8196Z" stroke="#5532D5" stroke-width="2" stroke-linecap="round" stroke-linejoin="round"/>
</svg>
