<svg width="56" height="56" viewBox="0 0 56 56" fill="none" xmlns="http://www.w3.org/2000/svg">
<rect x="4" y="4" width="48" height="48" rx="20" fill="#C7EEFD"/>
<rect x="4" y="4" width="48" height="48" rx="20" stroke="#ECF9FE" stroke-width="8"/>
<path d="M38 29V25C38 20 36 18 31 18H25C20 18 18 20 18 25V31C18 36 20 38 25 38H29" stroke="#5532D5" stroke-width="2" stroke-linecap="round" stroke-linejoin="round"/>
<path d="M23.3301 30.4898L25.7101 27.3998C26.0501 26.9598 26.6801 26.8798 27.1201 27.2198L28.9501 28.6598C29.3901 28.9998 30.0201 28.9198 30.3601 28.4898L32.6701 25.5098" stroke="#5532D5" stroke-width="2" stroke-linecap="round" stroke-linejoin="round"/>
<path d="M35.4792 31.8204L35.7592 32.3904C35.8992 32.6704 36.2492 32.9304 36.5592 32.9904L36.9392 33.0504C38.0792 33.2404 38.3492 34.0804 37.5292 34.9104L37.1792 35.2604C36.9492 35.5004 36.8192 35.9604 36.8892 36.2804L36.9392 36.4904C37.2492 37.8704 36.5192 38.4004 35.3192 37.6804L35.0592 37.5304C34.7492 37.3504 34.2492 37.3504 33.9392 37.5304L33.6792 37.6804C32.4692 38.4104 31.7392 37.8704 32.0592 36.4904L32.1092 36.2804C32.1792 35.9604 32.0492 35.5004 31.8192 35.2604L31.4692 34.9104C30.6492 34.0804 30.9192 33.2404 32.0592 33.0504L32.4392 32.9904C32.7392 32.9404 33.0992 32.6704 33.2392 32.3904L33.5192 31.8204C34.0592 30.7304 34.9392 30.7304 35.4792 31.8204Z" stroke="#5532D5" stroke-width="2" stroke-linecap="round" stroke-linejoin="round"/>
</svg>
