<svg width="16" height="16" viewBox="0 0 16 16" fill="none" xmlns="http://www.w3.org/2000/svg">
<g id="vuesax/linear/like-tag">
<g id="like-tag">
<g id="Group">
<path id="Vector" d="M6.43359 9.1996L7.50693 10.0329C7.64693 10.1729 7.96026 10.2396 8.16693 10.2396H9.48693C9.90026 10.2396 10.3536 9.92624 10.4603 9.51291L11.2936 6.98622C11.4669 6.49955 11.1536 6.08623 10.6336 6.08623H9.24693C9.04026 6.08623 8.86694 5.9129 8.90027 5.6729L9.0736 4.56621C9.14027 4.25288 8.93359 3.9062 8.62026 3.8062C8.34026 3.69954 7.99359 3.83953 7.86026 4.04619L6.44027 6.15956" stroke="#5532D5" stroke-width="1.3" stroke-miterlimit="10"/>
<path id="Vector_2" d="M4.66602 9.19987V5.80648C4.66602 5.31981 4.87268 5.14648 5.35934 5.14648H5.70601C6.19268 5.14648 6.39935 5.31981 6.39935 5.80648V9.19987C6.39935 9.68654 6.19268 9.85986 5.70601 9.85986H5.35934C4.87268 9.85986 4.66602 9.68654 4.66602 9.19987Z" stroke="#5532D5" stroke-width="1.3" stroke-linecap="round" stroke-linejoin="round"/>
</g>
<path id="Vector_3" d="M12 12.5732H11.4933C10.96 12.5732 10.4533 12.7798 10.08 13.1532L8.94 14.2799C8.42 14.7932 7.57333 14.7932 7.05333 14.2799L5.91333 13.1532C5.54 12.7798 5.02667 12.5732 4.5 12.5732H4C2.89333 12.5732 2 11.6865 2 10.5932V3.31982C2 2.22649 2.89333 1.33984 4 1.33984H12C13.1067 1.33984 14 2.22649 14 3.31982V10.5932C14 11.6798 13.1067 12.5732 12 12.5732Z" stroke="#5532D5" stroke-width="1.3" stroke-miterlimit="10" stroke-linecap="round" stroke-linejoin="round"/>
</g>
</g>
</svg>
