<svg width="16" height="16" viewBox="0 0 16 16" fill="none" xmlns="http://www.w3.org/2000/svg">
<g id="vuesax/linear/routing">
<g id="routing">
<path id="Vector" d="M1.38069 3.06691C1.91402 0.760247 5.38735 0.760247 5.91402 3.06691C6.22735 4.42025 5.36735 5.56691 4.62069 6.28025C4.07402 6.80025 3.21402 6.79358 2.66735 6.28025C1.92735 5.56691 1.06735 4.42025 1.38069 3.06691Z" stroke="#5532D5" stroke-width="1.3"/>
<path id="Vector_2" d="M10.0467 11.0669C10.58 8.76025 14.0733 8.76025 14.6067 11.0669C14.92 12.4202 14.06 13.5669 13.3067 14.2802C12.76 14.8002 11.8933 14.7936 11.3467 14.2802C10.5933 13.5669 9.73333 12.4202 10.0467 11.0669Z" stroke="#5532D5" stroke-width="1.3"/>
<path id="Vector_3" d="M7.99915 3.33301H9.78582C11.0191 3.33301 11.5925 4.85967 10.6658 5.67301L5.33915 10.333C4.41248 11.1397 4.98582 12.6663 6.21248 12.6663H7.99915" stroke="#5532D5" stroke-width="1.3" stroke-linecap="round" stroke-linejoin="round"/>
<path id="Vector_4" d="M3.65845 3.66634H3.66616" stroke="#5532D5" stroke-width="1.3" stroke-linecap="round" stroke-linejoin="round"/>
<path id="Vector_5" d="M12.3245 11.6663H12.3322" stroke="#5532D5" stroke-width="1.3" stroke-linecap="round" stroke-linejoin="round"/>
</g>
</g>
</svg>
