<svg width="16" height="16" viewBox="0 0 16 16" fill="none" xmlns="http://www.w3.org/2000/svg">
<g id="vuesax/linear/cloud-notif">
<g id="cloud-notif">
<path id="Vector" d="M14.5996 9.30682C14.7796 10.4201 14.4663 11.6135 13.513 12.4535C12.853 13.0601 11.9863 13.3935 11.0863 13.3868H3.69297C0.579636 13.1601 0.572969 8.62682 3.69297 8.40015H3.7263C2.2663 4.31348 6.05964 1.91348 8.91964 2.83348" stroke="#5532D5" stroke-width="1.3" stroke-miterlimit="10" stroke-linecap="round" stroke-linejoin="round"/>
<path id="Vector_2" d="M4.8399 8.67372C4.49323 8.50039 4.11323 8.40706 3.72656 8.40039" stroke="#5532D5" stroke-width="1.3" stroke-miterlimit="10" stroke-linecap="round" stroke-linejoin="round"/>
<path id="Vector_3" d="M14.6471 5.66634C14.6471 6.39967 14.3071 7.05967 13.7671 7.48634C13.3738 7.80634 12.8605 7.99967 12.3138 7.99967C11.0271 7.99967 9.98047 6.95301 9.98047 5.66634C9.98047 5.02634 10.2405 4.44634 10.6671 4.02634V4.01967C11.0871 3.59301 11.6738 3.33301 12.3138 3.33301C13.6005 3.33301 14.6471 4.37967 14.6471 5.66634Z" stroke="#5532D5" stroke-width="1.3" stroke-miterlimit="10" stroke-linecap="round" stroke-linejoin="round"/>
</g>
</g>
</svg>
