<svg width="16" height="16" viewBox="0 0 16 16" fill="none" xmlns="http://www.w3.org/2000/svg">
<g id="vuesax/linear/group">
<g id="group">
<path id="Vector" d="M10.0007 1.33301V7.99967C10.0007 8.73301 9.40065 9.33301 8.66732 9.33301H1.33398V3.99967C1.33398 2.52634 2.52732 1.33301 4.00065 1.33301H10.0007Z" stroke="#5532D5" stroke-width="1.3" stroke-linecap="round" stroke-linejoin="round"/>
<path id="Vector_2" d="M14.6673 9.33301V11.333C14.6673 12.4397 13.774 13.333 12.6673 13.333H12.0007C12.0007 12.5997 11.4007 11.9997 10.6673 11.9997C9.93398 11.9997 9.33398 12.5997 9.33398 13.333H6.66732C6.66732 12.5997 6.06732 11.9997 5.33398 11.9997C4.60065 11.9997 4.00065 12.5997 4.00065 13.333H3.33398C2.22732 13.333 1.33398 12.4397 1.33398 11.333V9.33301H8.66732C9.40065 9.33301 10.0007 8.73301 10.0007 7.99967V3.33301H11.2273C11.7073 3.33301 12.1473 3.59301 12.3873 4.00635L13.5273 5.99967H12.6673C12.3007 5.99967 12.0007 6.29967 12.0007 6.66634V8.66634C12.0007 9.03301 12.3007 9.33301 12.6673 9.33301H14.6673Z" stroke="#5532D5" stroke-width="1.3" stroke-linecap="round" stroke-linejoin="round"/>
<path id="Vector_3" d="M5.33333 14.6667C6.06971 14.6667 6.66667 14.0697 6.66667 13.3333C6.66667 12.597 6.06971 12 5.33333 12C4.59695 12 4 12.597 4 13.3333C4 14.0697 4.59695 14.6667 5.33333 14.6667Z" stroke="#5532D5" stroke-width="1.3" stroke-linecap="round" stroke-linejoin="round"/>
<path id="Vector_4" d="M10.6673 14.6667C11.4037 14.6667 12.0007 14.0697 12.0007 13.3333C12.0007 12.597 11.4037 12 10.6673 12C9.93094 12 9.33398 12.597 9.33398 13.3333C9.33398 14.0697 9.93094 14.6667 10.6673 14.6667Z" stroke="#5532D5" stroke-width="1.3" stroke-linecap="round" stroke-linejoin="round"/>
<path id="Vector_5" d="M14.6667 8V9.33333H12.6667C12.3 9.33333 12 9.03333 12 8.66667V6.66667C12 6.3 12.3 6 12.6667 6H13.5267L14.6667 8Z" stroke="#5532D5" stroke-width="1.3" stroke-linecap="round" stroke-linejoin="round"/>
</g>
</g>
</svg>
