<svg width="16" height="16" viewBox="0 0 16 16" fill="none" xmlns="http://www.w3.org/2000/svg">
<g id="vuesax/linear/driving">
<g id="driving">
<g id="Group">
<path id="Vector" d="M9.69948 1.33301H6.29948C5.09948 1.33301 4.83282 1.93301 4.67948 2.67301L4.13281 5.28634H11.8662L11.3195 2.67301C11.1661 1.93301 10.8995 1.33301 9.69948 1.33301Z" stroke="#5532D5" stroke-width="1.3" stroke-linecap="round" stroke-linejoin="round"/>
<g id="Group_2">
<path id="Vector_2" d="M12.8264 9.54598C12.8797 10.1126 12.4264 10.5993 11.8464 10.5993H10.9397C10.4197 10.5993 10.3464 10.3793 10.253 10.0993L10.153 9.81262C10.0197 9.41929 9.93305 9.15263 9.23305 9.15263H6.75971C6.06638 9.15263 5.95971 9.45262 5.83971 9.81262L5.73971 10.0993C5.64638 10.3727 5.57305 10.5993 5.05305 10.5993H4.14638C3.56638 10.5993 3.11304 10.1126 3.16638 9.54598L3.43971 6.59932C3.50638 5.87266 3.64637 5.2793 4.91304 5.2793H11.0797C12.3464 5.2793 12.4864 5.87266 12.553 6.59932L12.8264 9.54598Z" stroke="#5532D5" stroke-width="1.3" stroke-linecap="round" stroke-linejoin="round"/>
</g>
<path id="Vector_3" d="M4.13315 3.83301H3.64648" stroke="#5532D5" stroke-width="1.3" stroke-linecap="round" stroke-linejoin="round"/>
<path id="Vector_4" d="M12.3539 3.83301H11.8672" stroke="#5532D5" stroke-width="1.3" stroke-linecap="round" stroke-linejoin="round"/>
<path id="Vector_5" d="M5.09961 7.21973H6.54628" stroke="#5532D5" stroke-width="1.3" stroke-linecap="round" stroke-linejoin="round"/>
<path id="Vector_6" d="M9.45312 7.21973H10.8998" stroke="#5532D5" stroke-width="1.3" stroke-linecap="round" stroke-linejoin="round"/>
</g>
<path id="Vector_7" d="M8 11.333V11.9997" stroke="#5532D5" stroke-width="1.3" stroke-linecap="round" stroke-linejoin="round"/>
<path id="Vector_8" d="M8 14V14.6667" stroke="#5532D5" stroke-width="1.3" stroke-linecap="round" stroke-linejoin="round"/>
<path id="Vector_9" d="M2.00065 12L1.33398 14.6667" stroke="#5532D5" stroke-width="1.3" stroke-linecap="round" stroke-linejoin="round"/>
<path id="Vector_10" d="M14 12L14.6667 14.6667" stroke="#5532D5" stroke-width="1.3" stroke-linecap="round" stroke-linejoin="round"/>
</g>
</g>
</svg>
