<svg width="16" height="16" viewBox="0 0 16 16" fill="none" xmlns="http://www.w3.org/2000/svg">
<g id="vuesax/linear/smart-car">
<g id="smart-car">
<g id="Group">
<path id="Vector" d="M8.09318 5.08008H4.57984C3.33984 5.08008 3.05985 5.70009 2.90651 6.46676L2.33984 9.16675H10.3398L9.77318 6.46676C9.60652 5.70009 9.33318 5.08008 8.09318 5.08008Z" stroke="#5532D5" stroke-width="1.3" stroke-linecap="round" stroke-linejoin="round"/>
<g id="Group_2">
<path id="Vector_2" d="M11.3274 13.5735C11.3807 14.1602 10.9141 14.6668 10.3141 14.6668H9.37406C8.83406 14.6668 8.76074 14.4335 8.66074 14.1535L8.56073 13.8535C8.42073 13.4468 8.3274 13.1668 7.6074 13.1668H5.0474C4.3274 13.1668 4.22073 13.4802 4.09407 13.8535L3.99407 14.1535C3.90074 14.4402 3.8274 14.6668 3.28073 14.6668H2.34073C1.74073 14.6668 1.2674 14.1602 1.3274 13.5735L1.6074 10.5268C1.68074 9.77348 1.82073 9.16016 3.13406 9.16016H9.51407C10.8274 9.16016 10.9674 9.77348 11.0407 10.5268L11.3274 13.5735Z" stroke="#5532D5" stroke-width="1.3" stroke-linecap="round" stroke-linejoin="round"/>
</g>
<path id="Vector_3" d="M2.33398 7.66699H1.83398" stroke="#5532D5" stroke-width="1.3" stroke-linecap="round" stroke-linejoin="round"/>
<path id="Vector_4" d="M10.834 7.66699H10.334" stroke="#5532D5" stroke-width="1.3" stroke-linecap="round" stroke-linejoin="round"/>
<path id="Vector_5" d="M3.33398 11.167H4.83398" stroke="#5532D5" stroke-width="1.3" stroke-linecap="round" stroke-linejoin="round"/>
<path id="Vector_6" d="M7.83398 11.167H9.33398" stroke="#5532D5" stroke-width="1.3" stroke-linecap="round" stroke-linejoin="round"/>
</g>
<path id="Vector_7" d="M12.4741 5.82677C12.6607 5.39344 12.5941 4.80678 12.2474 4.29345C11.9074 3.78012 11.3874 3.49345 10.9141 3.50011" stroke="#5532D5" stroke-width="1.3" stroke-linecap="round" stroke-linejoin="round"/>
<path id="Vector_8" d="M14.5471 6.48633C14.8271 5.47966 14.6271 4.24635 13.9137 3.17969C13.2004 2.11302 12.1337 1.45967 11.0938 1.33301" stroke="#5532D5" stroke-width="1.3" stroke-linecap="round" stroke-linejoin="round"/>
</g>
</g>
</svg>
