<svg width="56" height="56" viewBox="0 0 56 56" fill="none" xmlns="http://www.w3.org/2000/svg">
<rect x="4" y="4" width="48" height="48" rx="20" fill="#C7EEFD"/>
<rect x="4" y="4" width="48" height="48" rx="20" stroke="#ECF9FE" stroke-width="8"/>
<path d="M26.4902 18.2296L21.5002 20.1096C20.3502 20.5396 19.4102 21.8996 19.4102 23.1196V30.5496C19.4102 31.7296 20.1902 33.2796 21.1402 33.9896L25.4402 37.1996C26.8502 38.2596 29.1702 38.2596 30.5802 37.1996L34.8802 33.9896C35.8302 33.2796 36.6102 31.7296 36.6102 30.5496V23.1196C36.6102 21.8896 35.6702 20.5296 34.5202 20.0996L29.5302 18.2296C28.6802 17.9196 27.3202 17.9196 26.4902 18.2296Z" stroke="#5532D5" stroke-width="2" stroke-linecap="round" stroke-linejoin="round"/>
<path d="M25.0508 27.8697L26.6608 29.4797L30.9608 25.1797" stroke="#5532D5" stroke-width="2" stroke-linecap="round" stroke-linejoin="round"/>
</svg>
