<svg width="56" height="56" viewBox="0 0 56 56" fill="none" xmlns="http://www.w3.org/2000/svg">
<rect x="4" y="4" width="48" height="48" rx="20" fill="#C7EEFD"/>
<rect x="4" y="4" width="48" height="48" rx="20" stroke="#ECF9FE" stroke-width="8"/>
<path d="M28.0001 23.8896L26.9301 25.7496C26.6901 26.1596 26.8901 26.4996 27.3601 26.4996H28.6301C29.1101 26.4996 29.3001 26.8396 29.0601 27.2496L28.0001 29.1096" stroke="#5532D5" stroke-width="1.5" stroke-linecap="round" stroke-linejoin="round"/>
<path d="M24.2994 34.0402V32.8802C21.9994 31.4902 20.1094 28.7802 20.1094 25.9002C20.1094 20.9502 24.6594 17.0702 29.7994 18.1902C32.0594 18.6902 34.0394 20.1902 35.0694 22.2602C37.1594 26.4602 34.9594 30.9202 31.7294 32.8702V34.0302C31.7294 34.3202 31.8394 34.9902 30.7694 34.9902H25.2594C24.1594 35.0002 24.2994 34.5702 24.2994 34.0402Z" stroke="#5532D5" stroke-width="1.5" stroke-linecap="round" stroke-linejoin="round"/>
<path d="M24.5 38.0002C26.79 37.3502 29.21 37.3502 31.5 38.0002" stroke="#5532D5" stroke-width="1.5" stroke-linecap="round" stroke-linejoin="round"/>
</svg>
