<svg width="348" height="599" viewBox="0 0 348 599" fill="none" xmlns="http://www.w3.org/2000/svg">
<g opacity="0.15">
<circle cx="300.341" cy="299.499" r="298.499" stroke="white" stroke-width="2"/>
<path d="M551.927 299.498C551.927 438.444 439.162 551.084 300.056 551.084C160.949 551.084 48.1836 438.444 48.1836 299.498C48.1836 160.552 160.949 47.9121 300.056 47.9121C439.162 47.9121 551.927 160.552 551.927 299.498Z" stroke="white" stroke-width="2"/>
<path d="M511.305 299.499C511.305 416.33 416.723 511.038 300.053 511.038C183.383 511.038 88.8008 416.33 88.8008 299.499C88.8008 182.669 183.383 87.9609 300.053 87.9609C416.723 87.9609 511.305 182.669 511.305 299.499Z" stroke="white" stroke-width="2"/>
<circle cx="300.34" cy="300.071" r="179.5" stroke="white" stroke-width="2"/>
</g>
</svg>
