<svg width="446" height="619" viewBox="0 0 446 619" fill="none" xmlns="http://www.w3.org/2000/svg">
<g opacity="0.15">
<circle cx="136.341" cy="309.343" r="308.343" stroke="white" stroke-width="2"/>
<path d="M396.23 309.342C396.23 452.873 279.743 569.23 136.047 569.23C-7.64963 569.23 -124.137 452.873 -124.137 309.342C-124.137 165.811 -7.64963 49.4541 136.047 49.4541C279.743 49.4541 396.23 165.811 396.23 309.342Z" stroke="white" stroke-width="2"/>
<path d="M354.272 309.344C354.272 430.032 256.566 527.868 136.043 527.868C15.5201 527.868 -82.1855 430.032 -82.1855 309.344C-82.1855 188.655 15.5201 90.8193 136.043 90.8193C256.566 90.8193 354.272 188.655 354.272 309.344Z" stroke="white" stroke-width="2"/>
<circle cx="136.341" cy="309.933" r="185.433" stroke="white" stroke-width="2"/>
</g>
</svg>
