<svg width="16" height="16" viewBox="0 0 16 16" fill="none" xmlns="http://www.w3.org/2000/svg">
<rect width="16" height="16" rx="2" fill="white"/>
<path d="M14.746 5.60099L15 5.00022H9.06434L8.73674 5.79129C8.52362 5.29979 8.04814 4.9906 7.34708 5.00022H4.07331C3.43275 5.00022 2.85505 5.39862 2.60832 6.01044L2.23703 6.93125H5.04561L5.48926 5.83058L6.99379 7.49785L4.14329 9.16921L4.58872 8.06466H2.83785C2.19729 8.06466 1.6196 8.46306 1.37287 9.07488L1 9.99978H5.29867C5.98214 10.0094 6.70474 9.70205 7.31901 9.21485L6.99398 9.99978H7.83343C8.46708 9.99978 9.03982 9.60977 9.29091 9.00777L9.43721 8.65684H11.9425C12.5734 8.65684 13.1444 8.2703 13.397 7.67199L13.5985 7.19501H9.80691L10.0614 6.58503H13.2916C13.9221 6.58503 14.4929 6.1989 14.7458 5.60099H14.746Z" fill="url(#paint0_linear_607_62515)"/>
<defs>
<linearGradient id="paint0_linear_607_62515" x1="1.01225" y1="9.99817" x2="15.0952" y2="5.29729" gradientUnits="userSpaceOnUse">
<stop stop-color="#3400CA"/>
<stop offset="1" stop-color="#ABF5FF"/>
</linearGradient>
</defs>
</svg>
