<svg width="2813" height="2534" viewBox="0 0 2813 2534" fill="none" xmlns="http://www.w3.org/2000/svg">
<g opacity="0.1">
<path d="M1584.42 923.062C1611.21 908.3 1623.69 859.474 1631.69 837.156C1647.52 793.025 1660.39 749.087 1673.86 705.169C1687.33 661.251 1700.68 617.295 1717.69 573.134C1728.73 544.465 1740.7 511.324 1763.61 483.442C1812.43 424.03 1846.54 508.443 1859.16 528.243C1891.26 578.603 1922.47 639.435 1981.88 670.597C2017.35 689.199 2056.36 683.005 2100.49 650.697C2114.84 640.207 2129.36 624.473 2147.21 621.305C2166.27 617.92 2182.38 625.312 2194.28 632.256C2237.63 657.6 2264.02 699.576 2288.73 737.97C2315.43 779.338 2338.31 823.325 2361.96 865.969C2371.99 884.052 2392.43 897.485 2410.06 910.279C2433.18 927.053 2457.47 942.833 2481.41 958.917C2534.02 994.329 2588.81 1030.5 2623.9 1079.22C2645.88 1109.72 2659.96 1148.51 2638.49 1193.3C2627.71 1215.79 2604.95 1236.93 2585.52 1257.15C2562.07 1281.59 2538.14 1305.84 2515.45 1330.62C2442.36 1410.43 2378.5 1502.23 2412.94 1575.65C2418.15 1586.76 2426.09 1596.12 2432.35 1606.59C2436.33 1613.27 2437.1 1620.72 2427.48 1629.27C2403.35 1650.74 2348.82 1654.59 2322.43 1658.38C2264.65 1666.67 2207.76 1671.48 2150.4 1678.23C2112.45 1682.68 2058.1 1684.2 2020.22 1704.63C1986.46 1722.84 1977.99 1765.1 1970.05 1789.94C1962.62 1813.2 1955.55 1851.85 1924.88 1870.74C1910 1879.9 1893.75 1880.31 1880.17 1878.87C1856.42 1876.34 1836.74 1869.21 1811.22 1869.21C1769.35 1869.21 1716.96 1878.73 1674.86 1904.88C1645.68 1923.01 1632.06 1944.89 1620.96 1969.33C1616.29 1979.6 1613.33 1987.48 1600.64 1994.84C1580.5 2006.51 1556.07 2013.16 1534.81 2019.26C1458.75 2041.07 1381.4 2055.26 1307.07 2064.63C1269.92 2069.31 1232.34 2072.98 1197.53 2071.28C1174.69 2070.19 1146.6 2067.24 1137.9 2051.29C1127.8 2032.82 1127.41 2007.65 1125.29 1985.49C1121.33 1944.1 1119.84 1901.89 1118.86 1859.57C1116.6 1761.69 1117.93 1662.78 1122.85 1562.84C1126.37 1492.41 1129.32 1420.84 1145.23 1347.73C1148.48 1333.17 1153.35 1318.65 1159.75 1304.38C1166.49 1288.95 1165.58 1274.88 1163.25 1261.38C1148.82 1177.58 1087.94 1110.42 1037.52 1045.93C1024.73 1029.56 1011.92 1013.2 999.987 996.289C989.724 981.755 974.473 965.978 973.879 946.72C972.69 908.783 1042.41 904.366 1071.03 902.965C1171.81 898.025 1266.47 911.009 1360.54 919.575C1405.33 923.619 1450.11 927.877 1496.09 929.713C1520.01 930.688 1560.94 936.004 1584.42 923.062Z" stroke="#8E76E3" stroke-width="2"/>
<path d="M1596.23 933.904C1618.14 906.525 1627.75 874.263 1638.06 846.207C1652.9 805.829 1665.74 765.534 1679.56 725.201C1692.63 687.061 1705.97 648.712 1723.55 610.397C1734.27 587.034 1746.66 558.301 1769.92 537.284C1820.34 491.717 1852.27 570.958 1863.84 588.501C1892.59 632.126 1921.79 683.439 1975.45 708.993C2008.95 724.948 2046.51 718.486 2087.33 688.835C2101.45 678.577 2112.5 667.976 2130.03 664.148C2150.33 659.711 2167.69 665.548 2181.31 672.158C2223.96 692.859 2251.01 730.121 2275.38 764.531C2300.56 800.08 2325.3 837.93 2342.18 876.43C2348.94 891.823 2365.48 904.748 2379.02 916.235C2399.86 933.897 2421.9 950.611 2443.31 967.822C2486.84 1002.79 2530.32 1039.31 2558.13 1085.24C2578.21 1118.41 2589.54 1158.24 2573.87 1203.54C2557.98 1249.47 2515.99 1288.96 2478.17 1330.31C2412.75 1401.76 2335.23 1492.33 2352.97 1565.11C2355.66 1576.14 2362.12 1584.63 2366.75 1594.59C2369.14 1599.71 2371.2 1605.89 2365.04 1612.52C2349.05 1629.73 2303.54 1631.45 2285.28 1633.65C2234.82 1639.71 2185.26 1642.6 2135.16 1647.43C2095.38 1651.26 2049.99 1653.36 2008.87 1668.93C1958.97 1687.81 1949.15 1748.2 1924.65 1780.95C1882.17 1837.74 1823.16 1806.49 1782.98 1797.15C1736.84 1786.42 1667.81 1794.5 1633.46 1845.55C1620.32 1865.08 1615.79 1882.73 1594.19 1900.07C1560.4 1927.17 1514.9 1945.55 1474.98 1960.41C1414.95 1982.73 1352.93 1999.99 1293.15 2010.05C1250.33 2017.25 1182.58 2027.39 1170.21 1994.73C1161.85 1972.76 1160.8 1946.34 1159.03 1921.46C1156.38 1884.2 1155.84 1846.28 1155.99 1808.18C1156.22 1720.29 1160.68 1631.06 1169.96 1540.9C1176.3 1479.38 1233.92 1285.9 1233.28 1274.07C1231.35 1238.79 1211.6 1208.29 1193.76 1180.6C1170.02 1143.77 1142.01 1109.52 1114.54 1075.02C1101.49 1058.58 1087.68 1042.44 1076.16 1025.04C1067.96 1012.66 1057.69 996.12 1063.13 978.364C1073.73 943.718 1139.31 939.962 1166.93 938.141C1251.59 932.527 1331.75 940.169 1411.86 944.622C1451.2 946.798 1490.63 949.278 1531.39 948.484C1547.84 948.154 1582.71 950.82 1596.23 933.904Z" stroke="#8E76E3" stroke-width="2"/>
<path d="M1604.92 937.819C1644.02 874.388 1663.87 808.954 1690.23 744.463C1703.46 712.087 1730.11 681.414 1749.35 649.209C1759.35 632.459 1772.08 611.418 1791.73 598.49C1844.3 563.916 1873.58 635.068 1886.65 654.001C1911.94 690.603 1939.01 732.775 1986.36 752.628C2015.3 764.752 2049.27 759.934 2084.09 735.65C2099.54 724.878 2111.98 714.465 2130.6 710.198C2149.47 705.877 2166.27 709.189 2180.25 714.204C2220.43 728.605 2247.42 759.057 2270.6 787.347C2297.68 820.479 2320.8 856.319 2339.67 894.438C2356.19 927.781 2388.83 952.105 2416.06 978.59C2452.12 1013.68 2486.97 1050.43 2508.88 1094.55C2526.18 1129.39 2534.29 1169.61 2521.82 1214.31C2509.09 1259.77 2475.51 1301.28 2437.55 1342.92C2380.17 1405.87 2302.02 1487.94 2304.32 1555.87C2304.65 1565.76 2308.17 1573.21 2311.86 1581.57C2313.65 1585.63 2316.29 1590.7 2311.09 1596.04C2298.58 1608.91 2260.03 1607.76 2247.25 1608.55C2206.44 1611.07 2166.4 1611.51 2125.81 1613.41C2087.93 1615.19 2048.07 1616.35 2008.06 1626.47C1944.36 1642.59 1936.95 1706.55 1883.06 1734.36C1849.6 1751.62 1814.72 1744.11 1789.47 1736.87C1758.4 1727.93 1729.43 1706.44 1687.21 1716.57C1655.76 1724.12 1646.21 1744.51 1630.36 1764.87C1603.5 1799.37 1556.35 1826.52 1514.73 1847.23C1458.5 1875.23 1398.06 1897.45 1339.66 1910.93C1313.19 1917.05 1285.01 1922.22 1260.83 1920.35C1238.17 1918.6 1228.26 1910.64 1223.72 1894.23C1209.83 1843.96 1214.44 1783.01 1217.17 1726.02C1220.6 1654.42 1227.85 1581.69 1240.49 1508.07C1249.11 1457.86 1258.91 1405.99 1280.48 1354.26C1286.1 1340.78 1292.48 1326.63 1302.48 1313.55C1309.97 1303.69 1317.14 1297.34 1318.72 1286.77C1323.39 1255.48 1302.17 1227.12 1287.46 1204.38C1263.95 1168.01 1235.93 1134.35 1208.66 1100.34C1192.73 1080.51 1157.77 1045.85 1177.69 1012.15C1194.88 983.062 1248.34 977.558 1275.9 974.607C1345.6 967.151 1412.05 970.258 1478.78 970.363C1509.36 970.411 1525.56 966.357 1557.54 962.723C1561.35 962.293 1565.82 961.961 1570.63 961.321C1575.58 960.664 1580.89 959.614 1585.42 957.653C1595.16 953.425 1600.09 945.624 1604.92 937.819Z" stroke="#8E76E3" stroke-width="2"/>
<path d="M1608.06 952.337C1641.93 894.962 1663.49 836.372 1692.94 778.563C1706.14 752.644 1720.29 726.017 1740 700.986C1750.6 687.524 1764.58 671.743 1782.65 663.961C1834.53 641.637 1860.27 699.247 1875.35 719.957C1897.71 750.756 1922.81 786.466 1965.44 801.199C1993.35 810.85 2023.01 803.969 2054.23 782.23C2087.71 758.91 2118.25 753.37 2148.81 762.07C2187.11 772.988 2214.19 798.408 2236.98 822.941C2264.29 852.395 2287.18 885.113 2305.22 920.503C2322.72 954.856 2349.39 982.817 2373.46 1013.28C2405.36 1053.68 2434.23 1097.6 2442.87 1150.08C2450.38 1195.77 2439.67 1246.62 2408.01 1297.67C2374.98 1350.97 2322.03 1397.39 2281.12 1448.37C2255.6 1480.18 2222.39 1523.23 2223.58 1555.9C2223.98 1566.8 2238.29 1579.24 2213.49 1583.93C2199.31 1586.62 2184.74 1585.09 2171.73 1584.7C2150.71 1584.08 2129.96 1582.91 2109.07 1582.01C2064.54 1580.1 2018.52 1577.15 1970.61 1583.67C1910.28 1591.86 1887.42 1641.26 1834.94 1665.48C1806.71 1678.52 1778.28 1678.16 1754.12 1674.54C1738.48 1672.2 1723.89 1668.27 1709.83 1663.79C1695.14 1659.12 1681.69 1651.44 1664.96 1649.51C1641.14 1646.75 1623.71 1663.14 1602.76 1677.57C1565.85 1702.98 1526.81 1725.49 1486.24 1744.75C1436.5 1768.36 1383.35 1788.99 1332.02 1799.25C1312.05 1803.25 1290.26 1806.39 1273.34 1802.61C1256.41 1798.83 1251.51 1788.03 1248.66 1774.64C1240.17 1734.97 1245.23 1687.97 1249.97 1643.33C1255.9 1587.46 1265.58 1530.58 1280.55 1473.11C1290.89 1433.45 1303.17 1392.61 1324.62 1352.42C1330.86 1340.73 1337.97 1328.97 1346.92 1317.71C1353.06 1309.98 1362.36 1302.54 1365.69 1294.39C1376.07 1268.89 1353.73 1241.34 1342.85 1224.05C1321.15 1189.55 1291.62 1160.07 1269.61 1125.79C1257.6 1107.09 1237.48 1078.51 1255.25 1050.22C1271.96 1023.62 1316.51 1015.05 1344.08 1010.4C1398.3 1001.24 1450.5 1000.22 1503.27 996.033C1524.98 994.304 1547.91 992.884 1570.58 987.05C1590.78 981.839 1599.37 967.043 1608.06 952.337Z" stroke="#8E76E3" stroke-width="2"/>
<path d="M1611.26 960.144C1642.44 912.166 1665.98 862.016 1697.79 813.471C1716.42 785.05 1747.42 736.695 1790.44 727.248C1837.71 716.848 1861.52 757.72 1877.92 779.901C1897.45 806.3 1921.13 836.89 1959.94 847.39C1972.21 850.712 1986.46 851.466 2002.01 846.581C2018.65 841.354 2030 830.903 2044.79 822.255C2075.82 804.117 2107.79 802.447 2133.99 809.053C2171.03 818.386 2198.23 840.511 2221.05 862.983C2246.74 888.305 2268.25 916.89 2285.12 948.136C2301.2 977.893 2318.28 1006.7 2335.71 1035.76C2358.53 1073.75 2377.56 1114.52 2382.24 1160.92C2386.84 1206.63 2375.86 1256.5 2347.05 1306.71C2318.93 1355.7 2276.82 1401.42 2232.55 1445.5C2207.43 1470.52 2170.81 1509.59 2167.04 1538.53C2165.35 1551.41 2170.75 1560.18 2147.93 1559.96C2119.2 1559.68 2092.48 1552.74 2065.86 1548.76C2027.46 1543.04 1988.24 1537.09 1946.53 1537.48C1919.88 1537.73 1897.2 1543.75 1870.93 1559.11C1850.92 1570.82 1832.27 1584.49 1811.13 1594.31C1761.52 1617.37 1715.31 1610.92 1672.92 1606.07C1645.65 1602.95 1623.71 1598.48 1591.82 1606.65C1554.13 1616.29 1516.21 1632.42 1478.79 1645.57C1437.69 1659.99 1394.55 1674.29 1353.93 1678.91C1317.77 1683.04 1296.48 1675.63 1292.44 1649.32C1286.12 1608.29 1298.24 1557.82 1309.9 1511.95C1321.76 1465.26 1337.48 1417.15 1363.02 1369.87C1376.81 1344.34 1396.73 1321.17 1412.96 1296.32C1433.31 1265.09 1403.26 1236.09 1389.45 1216.64C1366.52 1184.36 1276.82 1092.38 1380.44 1048.69C1423.69 1030.45 1470.5 1026.23 1513.24 1018.49C1530.97 1015.28 1552.93 1012.65 1570.73 1004.37C1590.13 995.356 1601.86 974.579 1611.26 960.144Z" stroke="#8E76E3" stroke-width="2"/>
<path d="M1614.38 974.759C1644.48 934.661 1670.42 892.197 1705.14 852.924C1727.62 827.472 1759.62 797.052 1796.4 793.883C1837.92 790.311 1863.5 818.533 1880.82 840.073C1898.67 862.271 1918.43 889.609 1954.8 895.832C1966.37 897.806 1980.16 897.117 1993.74 890.959C2006.77 885.058 2017.82 875.537 2031.05 869.45C2060.75 855.777 2090.46 854.106 2115.48 859.223C2189.5 874.365 2235.62 931.943 2265.22 982.886C2280.02 1008.39 2291.14 1036.89 2302.91 1064.27C2318.19 1099.8 2329.81 1137.39 2330.85 1178.68C2333.07 1266.46 2279.99 1355.16 2200.23 1440.47C2175.12 1467.32 2146.21 1493.17 2130.24 1522.45C2121.99 1537.56 2111.89 1540.77 2095.74 1538.78C2070.5 1535.67 2047.96 1527.35 2024.92 1521.16C1992.17 1512.36 1958.85 1503.29 1923.14 1499.2C1898.52 1496.37 1876.54 1496.83 1848.44 1508.7C1828.41 1517.16 1809.31 1528.2 1789.58 1537.49C1752.08 1555.14 1711.94 1567.29 1674.53 1570.39C1644.86 1572.81 1616.25 1572.03 1588.43 1570.27C1552.36 1567.83 1515.35 1568.8 1477.99 1573.16C1426.35 1579.19 1335.19 1597.83 1333.78 1546.23C1332.23 1489.3 1367.3 1415.97 1407.76 1356.76C1421.35 1336.88 1440.13 1316.38 1446.94 1295.87C1457.11 1265.17 1445.65 1245.95 1432.97 1223C1414.01 1188.62 1361.45 1120.01 1440.72 1075.58C1472.13 1057.97 1506.83 1050.48 1539.53 1038.09C1576.17 1024.24 1593.88 1002.11 1614.38 974.759Z" stroke="#8E76E3" stroke-width="2"/>
<path d="M1618.22 990.25C1660.58 943.701 1724.28 856.432 1799.12 855.338C1838.67 854.748 1865.88 877.096 1885.9 897.374C1902.04 913.675 1916.89 935.865 1948.45 937.588C1971.65 938.853 1994.25 920.288 2018.18 912.541C2047.86 902.938 2076.27 902.63 2100.68 907.991C2168.91 922.972 2213.73 971.197 2243.25 1017.98C2273.9 1066.57 2289.61 1130 2287.38 1192.73C2284.59 1270.95 2242.36 1351.52 2175.14 1428.49C2162.73 1442.69 2149.63 1456.59 2136.91 1470.67C2128.39 1480.13 2121.18 1491.16 2111.67 1500.14C2095.82 1515.08 2077.59 1517.67 2060.55 1515.14C2036.01 1511.51 2014.84 1502.15 1993.64 1494.32C1964.62 1483.61 1935.68 1472.27 1904.35 1464.69C1883.29 1459.6 1860.81 1454.5 1833.89 1463.28C1815.54 1469.27 1797.55 1478.27 1780.37 1487.82C1743.53 1508.29 1712.95 1523.4 1672.98 1530.76C1607.34 1542.8 1541.89 1541.89 1483.96 1534.8C1438.5 1529.23 1367.51 1519.9 1370.65 1473.82C1373.43 1432.5 1410.4 1388.99 1437.17 1348.11C1450.18 1328.24 1460.94 1308.03 1466.93 1287.93C1474.48 1262.58 1472.98 1243.43 1465.09 1222.61C1451.82 1187.56 1426.13 1137.82 1480.97 1094.74C1501.2 1078.84 1525.43 1068.34 1546.92 1054.05C1575.35 1035.17 1596.85 1013.73 1618.22 990.25Z" stroke="#8E76E3" stroke-width="2"/>
<path d="M1626.52 1010.01C1676.63 965.944 1739.41 909.729 1807.1 912.874C1839.89 914.397 1865.17 927.945 1886.6 942.714C1901.96 953.289 1916.82 975.296 1944.35 971.865C1964.61 969.326 1988.09 957.661 2009.19 953.842C2036.84 948.888 2064.15 949.555 2088.97 955.792C2150.91 971.089 2193.83 1011.67 2222.99 1054.14C2286.35 1146.42 2261.92 1288.96 2160.82 1412.22C2130.69 1448.96 2100.55 1491.6 2047.27 1488.02C1989.13 1484.1 1946.27 1453.72 1897.69 1437.65C1879.14 1431.5 1856.34 1423.21 1831.34 1427.8C1816.31 1430.55 1800.19 1439 1786.08 1446.47C1750.13 1465.48 1717 1481.12 1678.64 1490.06C1619.35 1503.87 1559.39 1506.97 1506.33 1502.34C1460.07 1498.29 1402.61 1487.87 1409.08 1441.68C1414.1 1406.24 1445.22 1368.48 1463.91 1332.85C1484.72 1293.18 1492.05 1254.21 1486.66 1218.77C1481.38 1184.31 1471.18 1148.93 1507.3 1109.47C1519.69 1095.94 1536.45 1079.72 1552.24 1068.54C1578.17 1050.3 1602.99 1030.75 1626.52 1010.01L1626.52 1010.01Z" stroke="#8E76E3" stroke-width="2"/>
<path d="M1637.52 1031.08C1691.96 993.585 1751.74 960.018 1812.26 962.665C1840.5 963.905 1864.45 971.898 1887.09 980.847C1903.74 987.43 1919.05 995.271 1940.45 995.283C1960.27 995.299 1981.45 991.965 2001.51 991.471C2027.29 990.678 2052.21 993.594 2075.32 1000.11C2131.2 1016.24 2172.07 1050.7 2200.84 1089.33C2214.78 1108.02 2228.29 1129.17 2231.51 1153.55C2234.63 1177.09 2233.27 1202.8 2229.2 1228.24C2220.57 1282.31 2195.52 1338.78 2154.13 1392.44C2125.73 1429.23 2094.26 1457.95 2044.78 1457.5C1989 1456.99 1944.95 1432.44 1900.34 1416.73C1869.75 1405.97 1838.13 1392.44 1795.57 1410.59C1761.7 1425.03 1729.79 1439.17 1694.95 1447.65C1643.5 1460.05 1593.14 1464.44 1546.87 1460.56C1504.68 1456.94 1464.19 1445.31 1464.63 1406.87C1465 1376.4 1484.5 1342.25 1494.38 1310.4C1505.44 1274.88 1504.74 1242.88 1500.79 1210.95C1497.27 1182.23 1499.55 1152.14 1521.83 1120.13C1526.42 1113.3 1531.52 1106.69 1537.09 1100.35C1544.34 1092.39 1553.33 1087.79 1563.02 1081.7C1588.59 1065.67 1612.89 1048.04 1637.52 1031.08Z" stroke="#8E76E3" stroke-width="2"/>
<path d="M1654.82 1051.49C1709.88 1022.02 1766.32 1002.21 1821.8 1002.2C1845.53 1002.19 1867.1 1005.88 1889.84 1007.71C1908.17 1009.17 1925.29 1010.67 1941.98 1014.76C1981.51 1024.48 2026.31 1025.45 2063.79 1038.26C2113.86 1055.35 2152.64 1085.08 2180.86 1120.19C2194.64 1137.34 2206.57 1156.32 2213.26 1177.63C2219.01 1195.94 2216.14 1218.06 2212.38 1239.17C2205.01 1280.56 2187.45 1326.44 2156.13 1367.84C2087.08 1459.1 1976.1 1414.4 1914.32 1394.1C1885.9 1384.76 1849.12 1366.86 1809.3 1378.46C1780.85 1386.74 1753.17 1397.45 1724.62 1403.69C1647.95 1420.43 1548.72 1423.57 1530.34 1365.43C1522.47 1340.56 1529.23 1310.27 1529.8 1282.71C1530.4 1254.34 1525.13 1228.27 1520.45 1201.69C1516.07 1176.84 1517.01 1154.6 1536.66 1126.26C1546.03 1112.71 1561.82 1104.82 1577.35 1095.57C1602.88 1080.37 1628.74 1065.46 1654.82 1051.49Z" stroke="#8E76E3" stroke-width="2"/>
<path d="M1673.29 1068.58C1760.6 1031.76 1868.01 1013.67 1941.24 1033.43C2027.36 1056.67 2107.04 1089.3 2156.12 1146.52C2178.88 1173.05 2199.98 1204.21 2194.74 1243.86C2190.75 1274.04 2180.87 1311.96 2154.21 1341.96C2088.99 1415.34 1989.13 1386.15 1931.49 1369.92C1900.47 1361.19 1867 1346.77 1829.35 1347.99C1807.51 1348.69 1782.47 1356.65 1759.87 1359.95C1691.37 1369.92 1626.39 1360.18 1594.42 1321.26C1579.65 1303.26 1573.27 1280.48 1566.1 1258.51C1558.76 1236.03 1549.53 1214.25 1543.76 1191.07C1539.16 1172.57 1535.93 1149.56 1559.42 1128.97C1589.02 1103 1637.64 1083.62 1673.29 1068.58Z" stroke="#8E76E3" stroke-width="2"/>
<path d="M1697.81 1081.84C1782.28 1051.59 1872.37 1036.12 1942.74 1054.5C1980.05 1064.24 2011.79 1081.89 2042.73 1098.57C2077.8 1117.48 2109.33 1140.04 2133.78 1167.32C2164.22 1201.29 2206.98 1259.89 2149.53 1317.78C2092.5 1375.24 2004.3 1357.16 1953.44 1345.76C1920.85 1338.44 1889.33 1328.77 1855.16 1323.44C1836.64 1320.54 1817.34 1321.06 1797.41 1320.94C1742.21 1320.67 1690.37 1305.59 1653.81 1281.31C1618.38 1257.78 1588.33 1221.12 1574.99 1183.11C1569.22 1166.72 1571.65 1151.41 1592.81 1133.92C1622.24 1109.63 1662.91 1094.33 1697.81 1081.84Z" stroke="#5532D5" stroke-width="2"/>
<path d="M1729.91 1090.78C1805.05 1065.53 1881.98 1057.66 1944.1 1073.61C2013.73 1091.49 2069.68 1132.95 2110.59 1176.82C2132.33 1200.13 2183.21 1248.6 2137.13 1291.77C2091.05 1334.93 2016.34 1323.93 1974.66 1316.87C1924.13 1308.27 1873.63 1296.83 1825.55 1284.1C1783.76 1273.06 1740.4 1260.6 1703.68 1243.95C1683.17 1234.76 1664.22 1223.53 1647.13 1210.42C1634.69 1200.79 1617.66 1189.22 1614.51 1173.71C1606.59 1134.6 1693.98 1102.85 1729.91 1090.78Z" stroke="#5532D5" stroke-width="2"/>
<path d="M1764.19 1104.73C1908.31 1060.69 2018.44 1110.77 2085.37 1180.38C2100.92 1196.56 2148.64 1239.65 2114.9 1271.91C2082.19 1303.18 2018.81 1295.33 1988.89 1291.81C1896.15 1280.86 1814.56 1249.29 1735.1 1220.53C1710.3 1211.56 1659.97 1198.44 1663.51 1168.54C1667.39 1136.05 1734.31 1113.87 1764.19 1104.73Z" stroke="#5532D5" stroke-width="2"/>
<path d="M1804.13 1118.55C1912.21 1089.69 2003.99 1127.56 2056.12 1180.02C2068.89 1192.87 2103.84 1224.13 2083.56 1250.25C2064.8 1274.42 2015.17 1268.4 1995.78 1266.6C1952.58 1262.6 1912.8 1251.62 1874.19 1240.39C1838.47 1230.02 1802.04 1219.72 1769.24 1206.19C1751.97 1199.06 1716.91 1187.15 1724.87 1163.95C1733.41 1138.98 1780.13 1124.96 1804.13 1118.55Z" stroke="#5532D5" stroke-width="2"/>
<path d="M1848.53 1133.56C1920.51 1117.26 1986.97 1142.71 2023.37 1177.33C2033.16 1186.65 2055.87 1205.93 2044.46 1224.56C2033.95 1241.71 2003.77 1239.86 1989.97 1239.26C1928.8 1236.6 1865.48 1218.35 1819.85 1194.84C1808.38 1188.93 1786.71 1178.87 1794.23 1162.22C1801.95 1145.14 1832 1137.31 1848.53 1133.56Z" stroke="#5532D5" stroke-width="2"/>
<path d="M1892.24 1151.34C1928.64 1144.44 1966.27 1157.84 1985.56 1175.44C1999.14 1187.83 2004.65 1208.64 1970.47 1210.07C1936.53 1211.48 1898.74 1200.33 1876.56 1185.48C1859.65 1174.15 1860.99 1157.28 1892.24 1151.34Z" stroke="#5532D5" stroke-width="2"/>
<path d="M1233.93 456.778C1294.66 422.711 1346.63 366.975 1414.54 343.293C1470.32 323.841 1498.05 364.388 1535.28 377.447C1564.87 387.824 1603.81 381.59 1641.12 375.531C1674.63 370.1 1708.43 363.201 1741.77 358.555C1763.32 355.561 1804.74 348.013 1813.41 362.356C1821.72 376.086 1801.46 403.93 1789.79 420.934C1774.57 443.106 1757.3 464.824 1741.58 486.868C1715.05 524.035 1699.79 559.554 1687.63 597.33C1673.79 640.318 1661.18 683.215 1649.8 726.021C1641.37 757.572 1633.15 789.182 1622.32 820.998C1615.52 840.955 1605.03 882.533 1579.96 896.421C1567.99 903.048 1550.68 902.962 1538.38 903.25C1517.56 903.742 1497.48 902.298 1477.71 900.652C1440.88 897.583 1404.87 893.085 1368.65 888.963C1321.65 883.603 1275.79 879.014 1225.77 879.063C1174.02 879.135 1121.49 880.898 1069.28 881.93C1033.92 882.633 995.18 885.201 966.971 873.739C931.682 859.358 942.287 825.899 928.194 799.538C916.078 776.858 997.765 734.318 1018.66 719.16C1039.82 703.842 1057.51 685.921 1078.95 670.996C1105.72 652.366 1134.81 636.399 1163.14 619.912C1197.81 599.751 1231.09 581.07 1231.19 549.407C1231.24 531.396 1224.65 515.55 1221.37 498.722C1219.26 487.817 1214.74 467.539 1233.93 456.778Z" stroke="#5532D5" stroke-width="2"/>
<path d="M1250.86 461.925C1300.77 431.543 1358.65 381.719 1418.72 366.008C1470.06 352.579 1495.23 384.669 1531.96 395.451C1562.26 404.361 1599.06 395.573 1635.88 388.165C1665.42 382.224 1695.07 375.912 1724.39 371.476C1745.99 368.206 1781.88 361.624 1793.1 373.27C1803.18 383.742 1783.57 411.616 1773.7 425.992C1759.28 446.971 1742.36 467.432 1726.04 487.926C1697.38 523.931 1672.68 558.263 1657.86 596.108C1642.99 634.121 1636.22 670.512 1628.76 707.624C1622.93 736.659 1616.55 765.859 1607.59 795.315C1600.92 817.255 1593.6 847.557 1571.5 868.019C1554.02 884.215 1506.23 876.764 1490.18 875.637C1457.18 873.301 1425.16 869.212 1393.27 865.011C1354.4 859.888 1318.66 852.209 1277.18 851.597C1203.02 850.489 1117.86 862.244 1053.19 843.987C1014.2 832.972 992.544 808.816 981.185 779.044C976.686 767.253 999.174 751.529 1012.37 742.511C1034.3 727.525 1057.72 714.332 1080.04 699.832C1100.92 686.252 1119.61 671.248 1139.36 656.593C1159.37 641.749 1181.09 628.77 1201.68 614.634C1214.46 605.862 1229.47 595.892 1237.08 583.96C1244.96 571.61 1244.09 558.821 1242.8 547.938C1240.29 527.53 1215.65 483.366 1250.86 461.925Z" stroke="#5532D5" stroke-width="2"/>
<path d="M1280.1 464.465C1324.92 434.772 1380.41 397.177 1432.57 389.681C1475.21 383.548 1498.3 407.609 1532.41 415.156C1560.77 421.435 1594.75 411.078 1627.65 403.887C1654.65 397.993 1681.76 392.081 1708.43 388.253C1728.64 385.351 1755.83 380.993 1768.51 390.26C1779.34 398.185 1763.53 422.495 1755.61 434.509C1742.1 454.977 1725.29 474.839 1708.73 494.491C1681.63 526.644 1651.61 559.012 1634.02 593.301C1616.96 626.595 1612.92 657.266 1607.12 689.439C1602.66 714.084 1597.62 738.913 1589.97 764.024C1584.1 783.302 1577.52 806.813 1560.03 824.76C1544.95 840.251 1515.67 837.689 1498.97 837.54C1471.4 837.287 1444.87 834.782 1418.37 832.507C1389.77 830.044 1361.97 825.192 1333.1 823.462C1272.37 819.841 1209.89 824.577 1156.12 808.574C1121.28 798.215 1084.22 778.902 1073.24 750.131C1065.35 729.437 1131.88 694.678 1151.9 681.318C1184.63 659.458 1217.56 633.812 1244.13 607.153C1266.9 584.288 1264.86 560.677 1261.37 539.84C1259.19 526.779 1254.97 514.16 1255.07 500.319C1255.19 484.289 1261.31 476.911 1280.1 464.465Z" stroke="#5532D5" stroke-width="2"/>
<path d="M1309.41 465.728C1347.85 441.619 1395.12 416.44 1437.89 412.969C1475.34 409.935 1496.36 429.526 1529.39 433.568C1555.16 436.723 1588.18 425.433 1616.56 419.187C1651.25 411.549 1713.2 393.545 1736.51 409.405C1758.18 424.161 1703.05 482.174 1687.18 500.501C1662.05 529.511 1632.82 558.266 1611.47 588.452C1593.09 614.444 1588.22 638.464 1582.86 664.06C1575.99 696.713 1571.89 742.823 1541.3 775.01C1518.51 798.999 1461.65 792.667 1437.11 793.314C1411.47 793.971 1383.52 799.196 1358.41 799.141C1318.77 799.047 1279.39 785.307 1248.4 773.125C1218.27 761.283 1182.63 744 1170.3 718.613C1162.19 701.928 1199.29 677.611 1216.34 663.776C1240.56 644.067 1261.08 624.253 1271.64 600.037C1282.39 575.386 1281.86 553.555 1279.75 531.449C1278.65 520.118 1275.97 507.965 1279.39 495.415C1283.04 481.619 1294.64 474.997 1309.41 465.728Z" stroke="#5532D5" stroke-width="2"/>
<path d="M1341.19 469.416C1375.59 450.762 1414.97 435.813 1449.69 436.382C1478.6 436.855 1496.72 452.453 1525.83 452.122C1548.89 451.865 1576.59 442.994 1600.8 438.018C1630.47 431.907 1680.86 418.634 1700.28 433.177C1719.2 447.38 1679.48 490.841 1664.1 508.67C1641.55 534.799 1616.19 559.838 1593.77 586.021C1576.18 606.551 1567.49 624.633 1560.67 646.117C1552.65 671.34 1546.28 703.895 1523.18 727.666C1506.44 744.851 1466.12 747.493 1445.42 751.768C1431.52 754.644 1417.61 757.93 1403.71 763.161C1392.88 767.231 1383.5 772.181 1372.62 772.774C1345.23 774.255 1329.92 753.016 1314.31 741.468C1293.57 726.126 1270.86 710.241 1257.04 689.876C1248.53 677.371 1263.65 660.337 1272.75 645.558C1283.52 628.09 1287.86 609.322 1293.64 591.846C1301.29 568.769 1302.34 547.636 1303.31 525.833C1303.76 515.995 1303.41 504.914 1309.2 494.317C1315.18 483.285 1328.78 476.149 1341.19 469.416Z" stroke="#5532D5" stroke-width="2"/>
<path d="M1370.89 475.303C1401.15 462.138 1433.15 455.194 1461.05 457.78C1482.46 459.75 1498.92 468.916 1522.35 467.082C1544.18 465.371 1567.11 459.953 1589.41 456.205C1612.98 452.25 1651.69 444.36 1665.76 457.289C1680.93 471.224 1654.75 502.682 1640.24 520.11C1621.89 542.132 1600.56 562.908 1580.87 584.393C1566.55 600.038 1554.41 616.962 1544.8 634.679C1534.99 652.817 1527.74 674.106 1509.58 690.503C1493.49 705.02 1466.62 709.038 1447.07 717.847C1426.19 727.258 1406.63 741.495 1384.72 742.3C1339.53 743.96 1321.72 695.801 1307.03 670.743C1292.49 646.036 1303.14 613.948 1312.66 582.304C1318.95 561.407 1322.84 541.098 1328 520.37C1333.28 499.237 1344.27 486.89 1370.89 475.303Z" stroke="#5532D5" stroke-width="2"/>
<path d="M1396.06 482.101C1442.05 466.966 1477.44 478.926 1518.43 478.889C1551.98 478.851 1611.28 460.143 1631.35 480.014C1654.14 502.581 1592.07 557.518 1569.84 581.863C1545.2 608.87 1530.65 640.901 1502.75 666.179C1488.11 679.455 1470.48 684.581 1452.45 691.649C1432.64 699.415 1412.76 707.986 1393.4 707.978C1355.31 707.955 1338.35 676.481 1325.18 654.33C1311.55 631.406 1320.31 599.728 1330.16 570.131C1340.57 538.754 1348.9 497.635 1396.06 482.101Z" stroke="#5532D5" stroke-width="2"/>
<path d="M1414.45 488.83C1448.97 481.245 1483.16 486.284 1514.11 488.619C1539.92 490.581 1585.53 482.924 1598.59 500.301C1613.95 520.722 1580.39 556.559 1560.07 579.022C1540.12 601.103 1520.85 627.729 1496.4 647.295C1470.92 667.682 1425.72 675.251 1398.88 673.57C1368.95 671.693 1348.15 653.202 1338.24 632.992C1327.85 611.845 1335.85 582.837 1346.37 556.759C1357.6 528.881 1374.38 497.621 1414.45 488.83Z" stroke="#5532D5" stroke-width="2"/>
<path d="M1426.62 497.767C1455.91 492.532 1484.73 495.477 1510.67 498.536C1530.7 500.894 1563.49 502.599 1572.18 517.056C1581.74 532.956 1568.71 558.001 1551.15 576.008C1533.84 593.764 1511.43 614.754 1489.13 628.195C1440.56 657.466 1361.8 645.75 1349 611.595C1336.87 579.211 1368.24 508.189 1426.62 497.767Z" stroke="#5532D5" stroke-width="2"/>
<path d="M1435.42 507.367C1473.94 501.183 1535.14 503.866 1550.33 529.042C1567.77 557.942 1520.68 593.363 1481.5 609.795C1441.52 626.582 1368.09 622.444 1360.6 591.198C1353.3 560.702 1389.74 514.71 1435.42 507.367Z" stroke="#5532D5" stroke-width="2"/>
<path d="M1447.04 516.226C1479.35 511.156 1524.41 513.409 1537.25 534.447C1552.54 559.522 1509.08 582.671 1479.01 591.544C1447.78 600.75 1385.48 600.111 1380.68 573.46C1376.03 547.528 1416.08 521.088 1447.04 516.226Z" stroke="#5532D5" stroke-width="2"/>
<path d="M1455.73 524.73C1478.5 520.593 1511.62 523.297 1520.75 538.112C1531.87 556.229 1495.64 571.353 1476.47 575.588C1453.66 580.633 1408.99 580.164 1405.72 561.042C1402.5 542.214 1436.97 528.132 1455.73 524.73Z" stroke="#5532D5" stroke-width="2"/>
<path d="M834.532 2003.32C773.319 1983.24 715.908 1954.09 659.427 1927.89C576.897 1889.59 495.118 1849.64 422.89 1801.47C384.167 1775.64 331.231 1743.68 324.807 1696.74C322.453 1679.58 331.759 1657.67 335.441 1639.11C340.519 1613.53 344.728 1588.08 348.985 1562.65C357.504 1511.65 365.681 1460.68 376.333 1409.31C381.467 1384.57 390.603 1358.29 393.247 1334.01C394.796 1319.82 384.718 1309.36 378.261 1298.64C363.298 1273.8 347.396 1249.5 331.793 1225.03C312.713 1195.1 293.46 1165.17 277.26 1133.62C269.962 1119.38 247.312 1087.14 261.759 1069.19C269.539 1059.54 293.03 1059.41 303.895 1059.36C323.873 1059.26 343.007 1061.24 361.932 1063.16C405.697 1067.62 448.691 1074.27 494.851 1074.26C518.578 1074.25 548.048 1075.13 569.414 1054.97C590.995 1034.61 606.563 1011.28 627.853 990.594C652.349 966.785 680.583 947.016 709.139 926.482C730.24 911.298 746.726 893.806 764.234 876.259C783.592 856.866 803.012 837.125 824.76 819.114C839.126 807.216 865.283 786.383 881.403 791.689C904.319 799.222 908.459 834.59 913.83 854.529C921.267 882.078 926.994 910.329 933.825 938.128C938.775 958.31 943.304 978.803 952.557 997.013C967.473 1026.37 986.382 1053.66 1004.99 1080.9C1039.43 1131.34 1075.55 1180.37 1104.82 1233.87C1130.47 1280.74 1105.96 1434.9 1105.08 1468.33C1103.33 1535.05 1103.84 1602.28 1090.87 1671.62C1087.35 1690.38 1084.12 1718.05 1066.02 1736.82C1054.86 1748.38 1046.03 1750.71 1042.79 1765.37C1038.36 1785.38 1043.21 1805.26 1046.11 1823.13C1050.79 1851.92 1056.88 1880.18 1062.43 1908.64C1073.68 1966.17 1082.72 2024.49 1092.49 2082.57C1095.45 2100.13 1104.08 2118.61 1102.76 2137.61C1101.93 2149.85 1094.12 2152.9 1081.48 2150.7C1059.29 2146.84 1041.27 2134.28 1024.5 2124.55C999.935 2110.3 976.567 2094.95 953.355 2079.48C930.143 2064.02 907.225 2048.26 883.991 2032.81C868.66 2022.59 853.636 2009.59 834.532 2003.32Z" stroke="#5532D5" stroke-width="2"/>
<path d="M824.467 1964.74C761.871 1942.33 704.525 1910.8 648.883 1880.6C577.647 1841.97 508.091 1800.66 449.552 1750.91C415.194 1721.7 375.724 1686.64 371.281 1640.01C369.696 1623.38 377.193 1606.2 382.353 1588.37C388.249 1568.04 392.771 1547.81 397.106 1527.68C406.029 1486.24 413.958 1444.95 420.893 1403.83C424.615 1382.02 431.588 1356.44 426.359 1336.96C422.205 1321.47 408.897 1308.58 399.985 1295.62C383.935 1272.28 367.811 1248.99 352.069 1225.46C333.904 1198.32 315.898 1170.98 300.653 1142.16C292.157 1126.1 273.432 1100.78 283.18 1080.8C291.686 1063.37 361.512 1071.68 374.502 1072.76C415.061 1076.12 454.75 1081.27 496.631 1082.14C521.34 1082.68 551.4 1083.34 578.801 1074.27C602.151 1066.54 622.232 1045.82 639.433 1030.66C660.981 1011.67 684.014 993.271 704.554 973.675C722.857 956.22 736.966 936.659 752.073 917.993C768.692 897.46 785.6 876.62 805.412 857.292C817.61 845.414 838.082 825.6 856.153 826.051C876.998 826.59 882.169 860.58 886.293 873.46C894.588 899.625 900.529 926.841 907.201 953.684C918.29 998.263 929.667 1040.32 953.532 1078.84C984.619 1128.99 1019.47 1177.02 1051.39 1226.7C1063.2 1245.03 1076.55 1262.92 1085.52 1282.83C1090.66 1294.25 1090.05 1305.41 1081.88 1318.16C1070.73 1335.56 1072.88 1360.41 1071.38 1379.34C1069.04 1408.84 1067.85 1438.07 1066.44 1467.35C1063.36 1531.6 1061.84 1596.2 1048.75 1662.7C1044.62 1683.74 1040.24 1707.63 1026.2 1729.2C1018.37 1741.23 1006.86 1745.58 997.06 1755.67C984.188 1768.97 985.851 1788.65 985.968 1800.89C986.169 1824.54 990.012 1847.16 994.19 1869.41C1003.65 1919.75 1017.93 1967.58 1034.95 2014.68C1038.95 2025.71 1055.45 2068.74 1017.79 2062.01C976.153 2054.58 943.626 2028.75 912.359 2010.3C884.227 1993.65 857.103 1976.43 824.467 1964.74Z" stroke="#5532D5" stroke-width="2"/>
<path d="M798.646 1900.55C742.139 1878.2 691.867 1846.7 643.39 1815.86C584.564 1778.43 528.209 1737.91 482.722 1689.77C454.16 1659.54 425.758 1624.51 421.938 1581.04C419.328 1551.36 437.549 1517.31 445.554 1485.61C453.56 1453.91 459.899 1422 462.833 1391.11C464.653 1371.94 465.965 1351.68 456.195 1336.8C432.455 1300.62 404.55 1266.79 380.307 1230.83C364.248 1207.06 348.581 1183 335.403 1157.56C327.453 1142.21 314.652 1122.16 319.632 1102C325.14 1079.72 484.685 1095.03 501.863 1095.33C544.934 1096.08 600.905 1094.89 645.615 1065.73C688.355 1037.84 713.471 1004.61 739.158 968.505C753.783 947.991 790.035 888.034 822.168 885.316C840.536 883.758 847.205 908.107 851.798 918.895C860.852 940.155 867.562 962.552 874.838 984.646C885.48 1016.85 893.638 1051.45 907.286 1082.16C916.796 1103.55 930.317 1122.89 941.581 1143.36C957.727 1172.72 973.462 1202.3 989.142 1231.91C1002.3 1256.78 1016.26 1281.47 1026.06 1308.07C1032.18 1324.59 1033.47 1338.96 1025.18 1357.74C1017.98 1374.09 1018.57 1392.46 1017.33 1408.95C1015.27 1436.18 1014.32 1463.15 1013.13 1490.15C1010.63 1546.7 1008.95 1603.45 999.036 1661.69C994.518 1688.28 991.049 1730.72 957.857 1754.54C945.893 1763.13 940.979 1767.32 938.123 1779.42C934.066 1796.59 936.946 1812.92 939.954 1828.05C946.967 1863.33 965.333 1893.53 972.426 1928.69C975.271 1943.03 975.694 1963.56 949.005 1960.01C917.815 1955.9 892.586 1938.87 868.145 1926.87C855.946 1920.87 844.025 1914.35 830.579 1909.67C820.238 1906.09 808.627 1904.54 798.646 1900.55Z" stroke="#5532D5" stroke-width="2"/>
<path d="M766.797 1817.09C718.402 1794.36 675.767 1764.24 635.524 1733.77C590.85 1699.91 549.041 1663.09 516.47 1620.41C493.965 1590.95 473.771 1557.5 471.735 1518.07C470.45 1493.13 483.132 1468.81 490.617 1442.65C501.949 1403.15 506.864 1364.43 485.133 1336.32C460.777 1304.8 437.725 1272.42 415.976 1239.17C402.856 1219.12 390.104 1198.76 379.776 1177.15C373.238 1163.49 365.1 1145.74 368.07 1129.12C372.055 1106.87 498.415 1113.09 516.161 1112.78C560.171 1112 603.253 1105.5 649.829 1089.99C687.834 1077.33 708.013 1049.66 726.655 1022.31C738.227 1005.31 764.115 956.685 789.526 953.575C803.522 951.834 811.136 967.166 816.133 974.904C825.651 989.655 832.933 1005.72 840.827 1021.35C852.455 1044.46 871.052 1065.66 879.023 1090.52C896.702 1145.61 915.603 1199.86 936.473 1253.61C947.98 1283.23 959.908 1312.84 967.919 1344.06C970.793 1355.27 973.696 1366.88 973.123 1379.3C972.76 1387.29 968.344 1393.96 966.019 1401.8C954.979 1439.19 959.735 1477.51 959.064 1513.18C958.172 1560.59 957.709 1608.03 952.547 1656.54C949.833 1682.06 949.219 1715.95 929.989 1743.01C924.18 1751.19 916.947 1753.01 910.667 1759.59C903.415 1767.18 905.42 1777.07 905.966 1783.86C907.191 1799.29 927.172 1855.75 881.502 1849.69C859.742 1846.77 841.83 1837.69 822.595 1831.51C815.63 1829.28 808.703 1827.17 800.617 1826.55C787.071 1825.54 777.868 1822.26 766.797 1817.09Z" stroke="#5532D5" stroke-width="2"/>
<path d="M733.511 1727.8C647.818 1677.54 569.365 1606.6 530.666 1521.86C517.804 1493.67 508.427 1460.9 518.097 1425.08C523.821 1403.94 532.783 1384.65 528.483 1365.37C525.375 1351.46 514.359 1340.68 506.32 1329.37C494.675 1313 483.242 1296.49 472.153 1279.78C458.436 1259.04 445.098 1238.01 433.931 1215.82C425.958 1199.97 413.589 1178.82 419.107 1158.23C425.681 1133.67 520.423 1135.19 536.462 1133.93C575.337 1130.86 610.951 1124.13 650.5 1107.1C662.03 1102.14 675.184 1099.52 685.984 1093.01C697.003 1086.37 704.585 1076.37 711.181 1067.37C719.836 1055.58 737.094 1021.65 754.223 1019.29C763.682 1017.99 770.792 1028.63 775.625 1033.53C784.714 1042.69 792.432 1052.81 800.912 1062.39C815.317 1078.64 839.222 1089.52 849.029 1108.37C875.419 1159.05 879.225 1223.03 892.91 1279.35C901.02 1312.86 909.964 1346.16 915.096 1380.83C916.716 1391.8 918.368 1403.11 917.393 1414.91C916.716 1423.15 911.726 1430.93 910.323 1438.99C904.923 1469.88 908.035 1500.31 909.117 1529.72C910.49 1567.91 912.371 1605.96 912.657 1644.48C912.841 1668.63 917.143 1697.44 907.343 1723.7C900.185 1742.87 891.734 1737.07 875.696 1737.8C867.515 1738.17 861.558 1742.37 853.504 1745C841.998 1748.74 831.456 1747.3 821.858 1745.79C808.61 1743.72 795.699 1738.37 781.061 1738.76C775.902 1738.89 770.964 1741.72 766.542 1741.96C753.673 1742.68 741.565 1732.53 733.511 1727.8Z" stroke="#5532D5" stroke-width="2"/>
<path d="M705.957 1639.58C644.6 1594.3 591.623 1535.55 563.96 1467.34C554.34 1443.61 548.073 1417.85 549.922 1389.83C550.745 1377.09 553.546 1366.33 548.234 1355.77C535.904 1331.27 519.8 1308.73 505.944 1285.07C496.027 1268.14 486.384 1250.94 479.128 1232.61C474.271 1220.35 467.487 1203.89 473.217 1188.54C481.58 1166.21 548.927 1161.41 566.552 1158.28C595.778 1153.1 627.724 1146.35 654.463 1127.43C662.64 1121.64 669.373 1115.62 678.148 1110.52C685.676 1106.11 693.076 1102.87 699.429 1097.11C707.309 1089.98 716.094 1072.62 726.26 1071.37C733.197 1070.52 737.136 1077.08 741.401 1080.55C748.411 1086.23 756.169 1091.18 764.57 1095.33C773.546 1099.76 784.684 1101.61 792.928 1106.77C806.29 1115.17 814.326 1128.35 821.246 1141.07C848.856 1191.82 861.489 1251.6 872.373 1309.83C878.039 1340.16 883.228 1370.93 884.153 1402.91C884.432 1412.62 885.248 1423.35 881.744 1433.94C879.568 1440.55 875.53 1446.43 874.763 1452.99C868.273 1509.07 883.221 1561.62 886.037 1615.83C886.77 1629.94 893.462 1706.71 850.187 1688.34C823.899 1677.18 805.461 1660.27 774.393 1653.96C764.943 1652.03 757.6 1651.32 746.573 1654.58C739.242 1656.76 744.426 1658.32 734.977 1657.35C723.599 1656.13 713.106 1644.85 705.957 1639.58Z" stroke="#5532D5" stroke-width="2"/>
<path d="M688.075 1567.37C626.22 1508.9 583.953 1434.27 564.828 1350.95C560.002 1329.95 548.415 1311.69 539.642 1292.56C531.099 1273.99 511.09 1243.6 525.237 1218.96C535.491 1201.11 573.837 1193.41 593.014 1187.51C617.442 1180 642.281 1171.53 659.564 1152.45C669.683 1141.28 678.325 1128.84 688.156 1117.42C692.85 1111.96 699.401 1102.43 706.044 1101.27C717.007 1099.38 728.977 1112.02 737.252 1116.8C763.708 1132.08 780.531 1154.39 793.831 1178.93C818.401 1224.25 833.72 1274.94 845.038 1326.4C850.242 1350.07 855.206 1374.25 855.609 1399.6C855.841 1413.95 849.027 1428.36 848.139 1442.67C845.269 1488.74 853.859 1531.86 853.161 1577.51C852.956 1590.72 854.516 1638.81 821.671 1632.13C789.876 1625.66 777.796 1597.45 746.895 1589.54C743.37 1588.66 739.104 1587.52 734.634 1588.33C731.965 1588.83 728.368 1592.5 726.772 1592.64C709.559 1594.44 695.92 1574.8 688.075 1567.37Z" stroke="#5532D5" stroke-width="2"/>
<path d="M678.072 1513.03C650.402 1480.81 628.103 1444.61 607.334 1407.82C595.982 1387.7 581.809 1366.54 578.891 1342.37C577.111 1327.53 574.946 1313.43 571.154 1299.19C567.074 1283.88 557.582 1260.81 571.037 1242.76C581.091 1229.28 610.971 1218.4 627.405 1209.7C645.425 1200.14 657.394 1190.51 665.722 1175.33C670.972 1165.78 687.334 1126.19 697.263 1124.3C706.719 1122.49 716.941 1138.24 722.917 1144.2C741.825 1163.03 756.574 1184.52 768.717 1207.55C787.522 1243.22 801.374 1281.77 810.853 1321.82C814.749 1338.39 818.769 1355.52 818.341 1373.62C818.047 1385.82 812.766 1398.74 812.258 1410.97C810.777 1446.01 815.223 1479.77 813.505 1515.06C812.939 1526.39 814.21 1561.62 789.232 1566.67C768.382 1570.9 752.678 1555.08 735.673 1552.39C706.701 1547.83 693.271 1530.74 678.072 1513.03Z" stroke="#5532D5" stroke-width="2"/>
<path d="M675.752 1484.47C654.828 1458.09 636.277 1430.11 620.226 1400.71C609.796 1381.82 598.466 1362.06 594.875 1339.89C593.068 1328.75 596.349 1316.41 597.019 1304.57C597.702 1292.38 597.151 1276.37 607.98 1265.33C618.156 1254.96 636.707 1246.61 649.641 1235.31C661.112 1225.29 665.869 1214.84 671.13 1203.51C674.501 1196.28 687.26 1161.65 693.998 1161.16C701.213 1160.64 707.736 1173.67 712.173 1179.89C724.424 1196.97 735.206 1214.98 744.449 1233.8C756.981 1259.52 767.492 1286.6 773.468 1315.35C777.716 1335.74 772.263 1355.85 771.891 1377.23C771.38 1404.94 773.808 1432.03 772.052 1460.16C771.167 1474.18 771.146 1494.23 757.091 1508.86C751.709 1514.47 736.252 1525.51 728.498 1526.79C719.178 1528.32 710.275 1519.93 705.623 1516.21C694.006 1506.87 684.651 1495.57 675.752 1484.47Z" stroke="#5532D5" stroke-width="2"/>
<path d="M673.414 1450.55C647.351 1417.84 619.67 1379.93 612.478 1336.75C609.566 1319.31 616.713 1296.44 634.053 1279.19C643.019 1270.26 655.342 1262.65 663.143 1252.37C668.905 1244.77 673.419 1236.64 677.495 1228.83C679.801 1224.42 691.2 1198.04 696.389 1199.09C701.863 1200.2 704.876 1208.61 707.864 1213.85C714.996 1226.44 721.269 1239.5 726.658 1252.97C732.893 1268.42 738.809 1284.5 740.513 1301.86C741.858 1315.89 737.273 1331.85 737.235 1346.24C737.022 1384.14 741.158 1421.69 732.224 1462.06C730.325 1470.64 729.013 1486.28 713.726 1485.58C694.686 1484.72 681.457 1460.66 673.414 1450.55Z" stroke="#5532D5" stroke-width="2"/>
<path d="M667.498 1412.85C649.015 1389.52 631.327 1362.1 626.25 1331.3C623.676 1315.7 626.844 1298.8 642.225 1282.98C653.179 1271.69 667.291 1262.54 676.91 1250.03C680.301 1245.61 688.879 1231.5 693.573 1233.57C703.647 1238 706.207 1258.77 708.922 1271.07C712.976 1289.6 707.166 1310.1 707.704 1329.53C708.53 1359.33 718.31 1392.32 709.615 1424.65C701.17 1455.85 672.896 1419.65 667.498 1412.85Z" stroke="#5532D5" stroke-width="2"/>
</g>
</svg>
