<svg width="68" height="67" viewBox="0 0 68 67" fill="none" xmlns="http://www.w3.org/2000/svg">
<g id="round">
<g id="Ellipse 421">
<path id="Vector" d="M34.1544 67C52.656 67 67.6544 52.0015 67.6544 33.5C67.6544 14.9985 52.656 0 34.1544 0C15.6529 0 0.654419 14.9985 0.654419 33.5C0.654419 52.0015 15.6529 67 34.1544 67Z" fill="#C7EEFD"/>
</g>
<path id="Ellipse 422" d="M34.1544 54C44.924 54 53.6544 45.2696 53.6544 34.5C53.6544 23.7304 44.924 15 34.1544 15C23.3849 15 14.6544 23.7304 14.6544 34.5C14.6544 45.2696 23.3849 54 34.1544 54Z" fill="#A2E2FB"/>
<path id="Ellipse 425" d="M42.6544 33.5C42.6544 38.1944 38.8488 42 34.1544 42C29.46 42 25.6544 38.1944 25.6544 33.5C25.6544 28.8056 29.46 25 34.1544 25C38.8488 25 42.6544 28.8056 42.6544 33.5Z" fill="#5532D5" stroke="white" stroke-width="2"/>
</g>
</svg>
