<svg width="25" height="24" viewBox="0 0 25 24" fill="none" xmlns="http://www.w3.org/2000/svg">
<g id="icons/Star/Filled">
<path id="Shape" d="M11.7363 3.12723C12.0837 2.32217 13.2252 2.32217 13.5726 3.12723L15.7526 8.17911C15.8997 8.52 16.2236 8.75132 16.5937 8.77993L22.1844 9.21192C23.0814 9.28123 23.4378 10.4073 22.744 10.9801L18.5396 14.4514C18.2431 14.6962 18.1132 15.0894 18.2056 15.4627L19.4995 20.6911C19.7123 21.5509 18.7848 22.2424 18.0215 21.7931L13.1618 18.9321C12.8487 18.7478 12.4602 18.7478 12.1471 18.9321L7.28737 21.7931C6.52407 22.2424 5.59655 21.5509 5.80934 20.6911L7.10327 15.4627C7.19566 15.0894 7.06579 14.6962 6.76923 14.4514L2.56485 10.9801C1.87109 10.4073 2.22749 9.28123 3.12448 9.21192L8.71513 8.77993C9.0853 8.75132 9.40915 8.52 9.55625 8.17911L11.7363 3.12723Z" fill="#5532D5"/>
</g>
</svg>
