<svg width="57" height="56" viewBox="0 0 57 56" fill="none" xmlns="http://www.w3.org/2000/svg">
<rect x="4.1543" y="4" width="48" height="48" rx="20" fill="#C7EEFD"/>
<rect x="4.1543" y="4" width="48" height="48" rx="20" stroke="#ECF9FE" stroke-width="8"/>
<path d="M25.3144 26.87C25.2144 26.86 25.0944 26.86 24.9844 26.87C22.6044 26.79 20.7144 24.84 20.7144 22.44C20.7144 19.99 22.6944 18 25.1544 18C27.6044 18 29.5944 19.99 29.5944 22.44C29.5844 24.84 27.6944 26.79 25.3144 26.87Z" stroke="#5532D5" stroke-width="2" stroke-linecap="round" stroke-linejoin="round"/>
<path d="M32.5641 20C34.5041 20 36.0641 21.57 36.0641 23.5C36.0641 25.39 34.5641 26.93 32.6941 27C32.6141 26.99 32.5241 26.99 32.4341 27" stroke="#5532D5" stroke-width="2" stroke-linecap="round" stroke-linejoin="round"/>
<path d="M20.3145 30.56C17.8945 32.18 17.8945 34.82 20.3145 36.43C23.0645 38.27 27.5745 38.27 30.3245 36.43C32.7445 34.81 32.7445 32.17 30.3245 30.56C27.5845 28.73 23.0745 28.73 20.3145 30.56Z" stroke="#5532D5" stroke-width="2" stroke-linecap="round" stroke-linejoin="round"/>
<path d="M34.4941 36C35.2141 35.85 35.8941 35.56 36.4541 35.13C38.0141 33.96 38.0141 32.03 36.4541 30.86C35.9041 30.44 35.2341 30.16 34.5241 30" stroke="#5532D5" stroke-width="2" stroke-linecap="round" stroke-linejoin="round"/>
</svg>
