<svg width="57" height="56" viewBox="0 0 57 56" fill="none" xmlns="http://www.w3.org/2000/svg">
<rect x="4.1543" y="4" width="48" height="48" rx="20" fill="#C7EEFD"/>
<rect x="4.1543" y="4" width="48" height="48" rx="20" stroke="#ECF9FE" stroke-width="8"/>
<path d="M28.1543 31C29.8112 31 31.1543 29.6569 31.1543 28C31.1543 26.3431 29.8112 25 28.1543 25C26.4974 25 25.1543 26.3431 25.1543 28C25.1543 29.6569 26.4974 31 28.1543 31Z" stroke="#5532D5" stroke-width="2" stroke-miterlimit="10" stroke-linecap="round" stroke-linejoin="round"/>
<path d="M18.1543 28.8804V27.1204C18.1543 26.0804 19.0043 25.2204 20.0543 25.2204C21.8643 25.2204 22.6043 23.9404 21.6943 22.3704C21.1743 21.4704 21.4843 20.3004 22.3943 19.7804L24.1243 18.7904C24.9143 18.3204 25.9343 18.6004 26.4043 19.3904L26.5143 19.5804C27.4143 21.1504 28.8943 21.1504 29.8043 19.5804L29.9143 19.3904C30.3843 18.6004 31.4043 18.3204 32.1943 18.7904L33.9243 19.7804C34.8343 20.3004 35.1443 21.4704 34.6243 22.3704C33.7143 23.9404 34.4543 25.2204 36.2643 25.2204C37.3043 25.2204 38.1643 26.0704 38.1643 27.1204V28.8804C38.1643 29.9204 37.3143 30.7804 36.2643 30.7804C34.4543 30.7804 33.7143 32.0604 34.6243 33.6304C35.1443 34.5404 34.8343 35.7004 33.9243 36.2204L32.1943 37.2104C31.4043 37.6804 30.3843 37.4004 29.9143 36.6104L29.8043 36.4204C28.9043 34.8504 27.4243 34.8504 26.5143 36.4204L26.4043 36.6104C25.9343 37.4004 24.9143 37.6804 24.1243 37.2104L22.3943 36.2204C21.4843 35.7004 21.1743 34.5304 21.6943 33.6304C22.6043 32.0604 21.8643 30.7804 20.0543 30.7804C19.0043 30.7804 18.1543 29.9204 18.1543 28.8804Z" stroke="#5532D5" stroke-width="2" stroke-miterlimit="10" stroke-linecap="round" stroke-linejoin="round"/>
</svg>
