<svg width="57" height="56" viewBox="0 0 57 56" fill="none" xmlns="http://www.w3.org/2000/svg">
<rect x="4.1543" y="4" width="48" height="48" rx="20" fill="#C7EEFD"/>
<rect x="4.1543" y="4" width="48" height="48" rx="20" stroke="#ECF9FE" stroke-width="8"/>
<path d="M36.0143 24.0896C36.0143 24.5096 35.9843 24.9196 35.9343 25.3096C35.4743 25.1096 34.9743 24.9996 34.4443 24.9996C33.2243 24.9996 32.1443 25.5896 31.4743 26.4896C30.7943 25.5896 29.7143 24.9996 28.4943 24.9996C26.4443 24.9996 24.7843 26.6696 24.7843 28.7396C24.7843 31.4196 26.2043 33.4696 27.7843 34.8596C27.7343 34.8896 27.6843 34.8996 27.6343 34.9196C27.3343 35.0296 26.8343 35.0296 26.5343 34.9196C23.9443 34.0296 18.1543 30.3496 18.1543 24.0896C18.1543 21.3296 20.3743 19.0996 23.1143 19.0996C24.7443 19.0996 26.1843 19.8796 27.0843 21.0896C27.9943 19.8796 29.4343 19.0996 31.0543 19.0996C33.7943 19.0996 36.0143 21.3296 36.0143 24.0896Z" stroke="#5532D5" stroke-width="2" stroke-linecap="round" stroke-linejoin="round"/>
<path d="M38.1542 28.74C38.1542 33.42 33.8242 36.18 31.8842 36.84C31.6542 36.92 31.2842 36.92 31.0542 36.84C30.2242 36.56 28.9542 35.89 27.7842 34.86C26.2042 33.47 24.7842 31.42 24.7842 28.74C24.7842 26.67 26.4442 25 28.4942 25C29.7142 25 30.7942 25.59 31.4742 26.49C32.1442 25.59 33.2242 25 34.4442 25C34.9742 25 35.4742 25.11 35.9342 25.31C37.2442 25.89 38.1542 27.2 38.1542 28.74Z" stroke="#5532D5" stroke-width="2" stroke-linecap="round" stroke-linejoin="round"/>
</svg>
