<svg width="57" height="56" viewBox="0 0 57 56" fill="none" xmlns="http://www.w3.org/2000/svg">
<rect x="4.1543" y="4" width="48" height="48" rx="20" fill="#C7EEFD"/>
<rect x="4.1543" y="4" width="48" height="48" rx="20" stroke="#ECF9FE" stroke-width="8"/>
<path d="M28.1543 34.5C31.7441 34.5 34.6543 31.5899 34.6543 28C34.6543 24.4101 31.7441 21.5 28.1543 21.5C24.5644 21.5 21.6543 24.4101 21.6543 28C21.6543 31.5899 24.5644 34.5 28.1543 34.5Z" stroke="#5532D5" stroke-width="2" stroke-linecap="round" stroke-linejoin="round"/>
<path d="M35.2943 35.14L35.1643 35.01M35.1643 20.99L35.2943 20.86L35.1643 20.99ZM21.0143 35.14L21.1443 35.01L21.0143 35.14ZM28.1543 18.08V18V18.08ZM28.1543 38V37.92V38ZM18.2343 28H18.1543H18.2343ZM38.1543 28H38.0743H38.1543ZM21.1443 20.99L21.0143 20.86L21.1443 20.99Z" stroke="#5532D5" stroke-width="2" stroke-linecap="round" stroke-linejoin="round"/>
</svg>
