<svg width="506" height="2266" viewBox="0 0 506 2266" fill="none" xmlns="http://www.w3.org/2000/svg">
<g opacity="0.1">
<path d="M1090.51 1441.37C1068.33 1455.79 1060.61 1498.7 1055.1 1518.46C1044.21 1557.53 1035.85 1596.25 1026.97 1634.99C1018.09 1673.74 1009.33 1712.5 997.41 1751.67C989.679 1777.1 981.424 1806.45 963.401 1831.94C924.989 1886.26 890.268 1815.56 878.145 1799.26C847.291 1757.81 816.551 1707.27 763.336 1684.1C731.569 1670.27 698.289 1678.05 662.237 1708.69C650.502 1718.64 638.958 1733.13 623.755 1736.98C607.519 1741.09 593.153 1735.72 582.456 1730.48C543.461 1711.32 518.064 1676.75 494.338 1645.16C468.706 1611.14 446.209 1574.61 423.132 1539.29C413.348 1524.32 394.873 1514 378.854 1504.07C357.856 1491.04 335.906 1478.94 314.242 1466.56C266.634 1439.29 217.092 1411.51 183.762 1371.67C162.885 1346.72 148.31 1314.13 164.036 1274.13C171.929 1254.06 190.247 1234.39 205.743 1215.73C224.454 1193.16 243.582 1170.75 261.615 1147.94C319.692 1074.49 369.056 991.283 334.739 930.082C329.545 920.824 322.107 913.241 316.053 904.598C312.204 899.09 311.07 892.709 318.837 884.725C338.316 864.688 385.13 857.952 407.669 853.032C457.009 842.267 505.794 834.553 554.874 825.142C587.338 818.923 634.147 814.21 665.557 794.21C693.544 776.386 698.21 739.387 703.512 717.459C708.469 696.921 712.145 663.129 737.435 644.911C749.697 636.076 763.698 634.706 775.502 635.093C796.157 635.793 813.581 640.711 835.608 639.12C871.736 636.502 916.35 625.003 951.045 599.801C975.087 582.337 985.472 562.598 993.522 540.818C996.908 531.664 998.972 524.674 1009.46 517.537C1026.1 506.201 1046.77 498.937 1064.73 492.346C1129.01 468.761 1194.86 451.682 1258.42 438.945C1290.19 432.578 1322.39 427.062 1352.53 426.347C1372.3 425.859 1396.73 426.646 1405.23 439.871C1415.1 455.17 1417.02 476.865 1420.24 495.854C1426.24 531.327 1430.17 567.662 1433.66 604.118C1441.74 688.436 1446.78 773.87 1448.79 860.419C1450.15 921.412 1452.08 983.358 1442.93 1047.44C1441.03 1060.21 1437.75 1073.04 1433.11 1085.75C1428.26 1099.49 1429.93 1111.58 1432.78 1123.08C1450.48 1194.49 1507.21 1248.63 1554.76 1301.13C1566.82 1314.46 1578.9 1327.77 1590.25 1341.62C1600.02 1353.52 1614.17 1366.18 1615.88 1382.76C1619.28 1415.42 1559.4 1423.59 1534.79 1426.59C1448.13 1437.16 1365.64 1431.88 1283.92 1430.38C1245.03 1429.69 1206.11 1428.82 1166.32 1430.11C1145.62 1430.76 1109.97 1428.74 1090.51 1441.37Z" stroke="#8E76E3" stroke-width="2"/>
<path d="M1079.64 1432.76C1062.45 1457.76 1056.18 1486.2 1049.04 1511.05C1038.76 1546.82 1030.2 1582.4 1020.8 1618.07C1011.9 1651.8 1002.79 1685.72 990.021 1719.89C982.233 1740.72 973.342 1766.29 954.583 1785.88C913.928 1828.35 881.416 1761.97 870.333 1747.56C842.794 1711.71 814.388 1669.26 766.485 1650.57C736.575 1638.9 704.575 1646.82 671.207 1674.96C659.662 1684.7 650.792 1694.54 635.899 1698.94C618.664 1704.04 603.317 1700.09 591.154 1695.23C553.048 1680.04 527.376 1649.58 504.195 1621.41C480.247 1592.31 456.528 1561.2 439.547 1529.03C432.754 1516.17 417.676 1506.05 405.272 1496.99C386.18 1483.05 366.118 1470.01 346.562 1456.49C306.816 1429.04 267.013 1400.25 240.14 1362.35C220.739 1334.99 208.469 1301.33 219.151 1261.25C229.993 1220.63 263.751 1183.93 293.806 1145.88C345.786 1080.13 407.008 997.123 387.145 935.435C384.137 926.079 378.03 919.162 373.413 910.855C371.035 906.586 368.867 901.379 373.767 895.274C386.487 879.424 425.65 875.089 441.269 872.053C484.433 863.665 527.021 858.07 569.951 850.766C604.041 844.971 643.074 840.318 677.584 824.315C719.463 804.894 724.161 752.169 743.248 722.375C776.352 670.716 829.229 693.991 864.486 699.537C904.967 705.909 964.03 694.616 990.483 648.414C1000.6 630.743 1003.4 615.222 1020.96 598.915C1048.42 573.412 1086.53 554.704 1120.05 539.385C1170.45 516.369 1222.89 497.591 1273.85 485.169C1310.34 476.278 1368.17 463.286 1380.9 490.698C1389.48 509.138 1392.04 531.865 1395.12 553.227C1399.74 585.209 1402.58 617.9 1404.84 650.785C1410.14 726.642 1411.87 803.919 1409.51 882.298C1407.89 935.786 1370.26 1106.34 1371.56 1116.51C1375.43 1146.83 1394.38 1171.92 1411.51 1194.7C1434.3 1224.99 1460.61 1252.8 1486.47 1280.85C1498.77 1294.22 1511.69 1307.28 1522.72 1321.57C1530.57 1331.75 1540.47 1345.38 1536.89 1361.04C1529.91 1391.6 1473.55 1398.94 1449.83 1402.24C1377.13 1412.38 1307.48 1410.81 1238.07 1411.98C1203.99 1412.56 1169.81 1412.89 1134.69 1416.12C1120.51 1417.44 1090.26 1417.32 1079.64 1432.76Z" stroke="#8E76E3" stroke-width="2"/>
<path d="M1071.91 1429.93C1042.13 1487.11 1029.1 1544.81 1010.39 1602.11C1000.99 1630.88 979.923 1659.02 965.334 1688.01C957.749 1703.09 948.08 1722.04 931.933 1734.43C888.732 1767.55 859.02 1707.99 846.555 1692.47C822.438 1662.46 796.44 1627.77 754.34 1613.6C728.61 1604.95 699.601 1611.23 671.069 1634.36C658.409 1644.63 648.329 1654.39 632.527 1659.24C616.517 1664.15 601.814 1662.34 589.438 1658.89C553.86 1648.97 528.663 1624.38 506.894 1601.42C481.45 1574.53 459.261 1545.05 440.593 1513.33C424.245 1485.6 394.561 1466.65 369.406 1445.5C336.09 1417.48 303.723 1387.94 282.054 1351.24C264.948 1322.26 255.429 1288.06 263.393 1248.71C271.537 1208.68 297.912 1170.76 328.064 1132.45C373.645 1074.54 435.945 998.837 429.708 940.359C428.807 931.85 425.304 925.639 421.596 918.655C419.794 915.264 417.198 911.056 421.35 906.121C431.346 894.233 464.678 892.812 475.655 891.334C510.714 886.605 545.241 883.721 580.144 879.539C612.726 875.635 647.051 872.135 680.939 860.904C734.903 843.006 737.292 787.349 782.056 759.981C809.849 742.99 840.418 747.287 862.659 751.96C890.024 757.727 916.367 774.457 952.166 763.074C978.834 754.598 985.797 736.4 998.203 717.841C1019.23 686.391 1058.21 660.012 1092.83 639.535C1139.6 611.859 1190.37 588.901 1239.91 573.614C1262.37 566.677 1286.37 560.455 1307.35 560.55C1327.01 560.643 1336.06 566.89 1341.01 580.773C1356.14 623.281 1355.97 676.166 1357.18 725.513C1358.7 787.512 1357 850.722 1350.7 915.045C1346.4 958.906 1341.19 1004.29 1325.82 1050.27C1321.81 1062.26 1317.18 1074.87 1309.38 1086.78C1303.53 1095.75 1297.74 1101.69 1297.04 1110.9C1294.96 1138.2 1315.05 1161.34 1329.17 1180.04C1351.73 1209.96 1378.02 1237.25 1403.67 1264.89C1418.66 1281.01 1451 1308.73 1435.92 1339.05C1422.9 1365.23 1377.12 1373.32 1353.52 1377.59C1293.84 1388.39 1236.31 1389.87 1178.72 1393.95C1152.33 1395.82 1138.6 1400.33 1111.23 1405.47C1107.97 1406.08 1104.13 1406.65 1100.02 1407.5C1095.79 1408.38 1091.28 1409.61 1087.49 1411.59C1079.35 1415.85 1075.59 1422.89 1071.91 1429.93Z" stroke="#8E76E3" stroke-width="2"/>
<path d="M1068.29 1417.59C1042.65 1469.22 1027.71 1521.13 1005.92 1572.85C996.149 1596.05 985.598 1619.91 970.156 1642.74C961.853 1655.02 950.779 1669.51 935.67 1677.36C892.304 1699.87 866.489 1651.77 852.176 1634.84C830.951 1609.66 807.06 1580.42 769.357 1570.37C744.661 1563.79 719.5 1571.58 693.921 1592.3C666.486 1614.51 640.48 1621.21 613.565 1615.61C579.837 1608.59 554.879 1588.34 533.679 1568.6C508.264 1544.89 486.468 1518.09 468.685 1488.68C451.438 1460.13 426.669 1437.67 403.996 1412.89C373.937 1380.02 346.28 1343.93 335.545 1299.19C326.2 1260.23 332.26 1215.69 356.384 1169.65C381.551 1121.59 424.346 1078.22 456.456 1031.67C476.483 1002.62 502.452 963.396 499.374 935.275C498.348 925.897 485.221 916.063 506.33 910.461C518.402 907.255 531.07 907.661 542.32 907.179C560.499 906.401 578.478 906.114 596.559 905.582C635.102 904.444 675.003 904.115 715.936 895.491C767.484 884.642 784.12 840.584 827.885 816.402C851.435 803.386 875.987 801.916 897.061 803.529C910.704 804.565 923.542 807.048 935.956 810.033C948.921 813.143 961.003 818.934 975.562 819.551C996.289 820.442 1010.31 805.202 1027.48 791.444C1057.74 767.203 1090.02 745.338 1123.83 726.184C1165.27 702.699 1209.85 681.572 1253.49 669.503C1270.48 664.801 1289.08 660.728 1303.92 662.93C1318.76 665.132 1323.67 674.15 1326.97 685.521C1336.77 719.228 1335.35 760.097 1334.05 798.914C1332.43 847.497 1327.64 897.188 1318.31 947.711C1311.87 982.585 1303.84 1018.59 1287.84 1054.61C1283.18 1065.09 1277.79 1075.69 1270.77 1085.97C1265.95 1093.02 1258.39 1100.02 1256.03 1107.27C1248.67 1129.91 1269.67 1152.29 1280.14 1166.53C1301.02 1194.94 1328.35 1218.54 1349.49 1246.73C1361.02 1262.12 1380.17 1285.53 1366.6 1311.05C1353.85 1335.05 1315.95 1345.23 1292.44 1350.97C1246.24 1362.27 1201.25 1366.42 1155.98 1373.33C1137.35 1376.18 1117.66 1378.84 1098.45 1385.29C1081.35 1391.05 1074.86 1404.36 1068.29 1417.59Z" stroke="#8E76E3" stroke-width="2"/>
<path d="M1065.04 1411.06C1041.13 1454.41 1023.96 1499.16 999.547 1543.04C985.249 1568.73 961.52 1612.39 924.987 1623.24C884.853 1635.17 861.749 1601.39 846.206 1583.28C827.704 1561.72 805.358 1536.8 771.211 1530.17C760.414 1528.07 748.072 1528.31 734.958 1533.5C720.924 1539.05 711.786 1548.78 699.562 1557.17C673.919 1574.76 646.437 1578.2 623.416 1574.14C590.874 1568.41 566.016 1551.02 544.917 1533.05C521.161 1512.81 500.813 1489.49 484.301 1463.58C468.564 1438.91 452.021 1415.13 435.164 1391.14C413.097 1359.78 394.122 1325.79 387.181 1286.05C380.351 1246.88 386.707 1203.17 408.426 1158.04C429.625 1114 463.105 1071.92 498.543 1031.11C518.658 1007.95 547.815 971.939 549.257 946.733C549.909 935.513 544.698 928.279 564.401 927.045C589.21 925.49 612.707 929.808 635.921 931.571C669.416 934.106 703.63 936.787 739.606 933.84C762.58 931.96 781.78 925.34 803.486 910.444C820.017 899.086 835.258 886.125 852.887 876.328C894.256 853.33 934.527 856 971.412 857.53C995.136 858.516 1014.35 861.001 1041.36 851.962C1073.28 841.283 1104.99 824.99 1136.46 811.305C1171.02 796.285 1207.35 781.248 1242.12 774.716C1273.07 768.895 1291.9 773.959 1297.03 796.406C1305.05 831.412 1297.75 875.729 1290.56 916.04C1283.25 957.065 1272.69 999.568 1253.61 1041.97C1243.3 1064.86 1227.57 1086.1 1215.12 1108.56C1199.51 1136.78 1227.26 1159.93 1240.39 1175.84C1262.2 1202.27 1345.36 1276.02 1258.68 1320.21C1222.5 1338.65 1182.36 1345.22 1145.97 1354.57C1130.87 1358.46 1112.09 1362.1 1097.24 1370.36C1081.07 1379.35 1072.24 1398.01 1065.04 1411.06Z" stroke="#8E76E3" stroke-width="2"/>
<path d="M1061.43 1398.64C1037.96 1435.13 1018.24 1473.39 990.733 1509.45C972.928 1532.82 947.222 1561.07 915.676 1566.11C880.075 1571.79 856.237 1549.04 839.939 1531.54C823.148 1513.5 804.388 1491.14 772.617 1488.05C762.502 1487.07 750.654 1488.53 739.317 1494.69C728.441 1500.6 719.5 1509.51 708.468 1515.59C683.698 1529.24 658.162 1532.54 636.249 1529.69C571.434 1521.26 528.03 1474.46 499.304 1432.35C484.929 1411.27 473.556 1387.37 461.683 1364.48C446.277 1334.78 433.893 1303.07 430.415 1267.5C423.009 1191.89 463.263 1112.04 526.754 1033.43C546.739 1008.69 570.072 984.571 582.014 958.305C588.187 944.754 596.704 941.348 610.765 942.055C632.743 943.163 652.714 948.931 672.977 952.829C701.794 958.376 731.112 964.115 762.183 965.414C783.601 966.309 802.537 964.537 826.043 952.539C842.804 943.985 858.592 933.267 875.04 924.013C906.29 906.437 940.167 893.441 972.259 888.428C997.71 884.475 1022.44 883.364 1046.56 883.14C1077.84 882.988 1109.71 879.836 1141.68 873.733C1185.87 865.3 1263.36 843.516 1267.81 887.955C1272.71 936.978 1247.03 1002.45 1215.82 1056.08C1205.35 1074.08 1190.42 1092.94 1185.82 1111.07C1178.97 1138.2 1190.06 1154.07 1202.44 1173.08C1220.95 1201.56 1270.6 1257.48 1204.97 1300.78C1178.97 1317.93 1149.5 1326.57 1122.06 1339.31C1091.31 1353.55 1077.41 1373.75 1061.43 1398.64Z" stroke="#8E76E3" stroke-width="2"/>
<path d="M1057.15 1385.51C1023.51 1428.33 973.995 1507.62 909.483 1513.25C875.394 1516.23 850.52 1498.65 831.973 1482.4C817.024 1469.35 802.819 1451.13 775.48 1451.62C755.383 1451.98 737.046 1469.41 716.876 1477.59C691.868 1487.74 667.374 1489.78 645.971 1486.68C586.154 1478.02 544.466 1439.21 516.064 1400.69C486.576 1360.68 469.047 1306.93 467.046 1252.66C464.56 1184.98 495.965 1112.82 549.149 1042.2C558.97 1029.17 569.402 1016.34 579.497 1003.4C586.265 994.709 591.796 984.734 599.437 976.397C612.175 962.507 627.748 959.136 642.613 960.251C664.009 961.846 682.864 968.6 701.654 974.032C727.362 981.455 753.048 989.427 780.551 994.016C799.048 997.088 818.765 1000.08 841.44 990.816C856.907 984.501 871.865 975.609 886.094 966.295C916.599 946.323 942.045 931.376 976.075 922.524C1031.97 908.026 1088.5 904.714 1138.93 907.212C1178.51 909.174 1240.35 912.781 1240.52 952.74C1240.71 988.571 1211.53 1028.43 1190.99 1065.38C1181 1083.34 1172.99 1101.45 1169.07 1119.17C1164.15 1141.52 1166.63 1157.95 1174.74 1175.43C1188.39 1204.84 1213.67 1246.15 1169.05 1286.75C1152.58 1301.74 1132.33 1312.32 1114.68 1326C1091.33 1344.06 1074.12 1363.91 1057.15 1385.51Z" stroke="#8E76E3" stroke-width="2"/>
<path d="M1048.75 1368.98C1008.27 1410.14 957.609 1462.58 899.002 1464.1C870.611 1464.84 847.948 1454.73 828.53 1443.32C814.619 1435.16 800.417 1417.1 776.871 1421.78C759.549 1425.24 740.018 1436.78 722.047 1441.39C698.5 1447.4 674.891 1448.53 653.086 1444.7C598.676 1435.38 559.106 1403.04 531.28 1368.22C470.833 1292.56 483 1168.02 562.522 1055.34C586.224 1021.74 609.564 983.065 655.768 982.819C706.183 982.566 745.066 1006.11 787.996 1016.93C804.389 1021.07 824.583 1026.8 845.864 1021.28C858.658 1017.96 872.042 1009.67 883.75 1002.34C913.58 983.679 941.192 968.111 973.738 958.002C1024.03 942.373 1075.59 935.942 1121.65 936.623C1161.83 937.219 1212.07 942.619 1209.37 982.881C1207.26 1013.77 1182.76 1048.31 1168.87 1080.22C1153.39 1115.75 1149.5 1149.84 1156.38 1180.09C1163.09 1209.49 1174.1 1239.39 1145.4 1275.69C1135.55 1288.14 1122.11 1303.19 1109.18 1313.82C1087.95 1331.18 1067.76 1349.61 1048.75 1368.98L1048.75 1368.98Z" stroke="#5532D5" stroke-width="2"/>
<path d="M1037.93 1351.5C993.305 1387.26 943.815 1419.96 891.426 1421.47C866.982 1422.16 845.812 1416.77 825.719 1410.46C810.935 1405.82 797.242 1400.01 778.77 1401.34C761.665 1402.57 743.594 1406.77 726.316 1408.45C704.126 1410.75 682.44 1409.79 662.088 1405.61C612.854 1395.19 575.432 1368.01 548.189 1336.48C534.993 1321.23 522.011 1303.81 517.704 1282.98C513.537 1262.86 513.105 1240.59 515.026 1218.39C519.087 1171.19 537.174 1120.89 569.533 1072C591.734 1038.47 617.096 1011.72 659.822 1009.01C707.984 1005.97 747.536 1024.39 787.009 1035.15C814.083 1042.53 842.213 1052.23 877.805 1033.9C906.128 1019.32 932.777 1005.12 962.313 995.624C1005.94 981.703 1049.11 974.765 1089.28 975.221C1125.92 975.699 1161.59 983.202 1163.61 1016.4C1165.2 1042.72 1150.5 1073.41 1143.98 1101.51C1136.66 1132.85 1139.26 1160.42 1144.67 1187.73C1149.5 1212.29 1149.42 1238.4 1132.19 1267.41C1128.66 1273.59 1124.68 1279.62 1120.26 1285.44C1114.5 1292.76 1107.03 1297.3 1099.06 1303.15C1077.99 1318.59 1058.13 1335.32 1037.93 1351.5Z" stroke="#5532D5" stroke-width="2"/>
<path d="M1021.73 1334.97C976.06 1363.85 928.593 1384.47 880.722 1387.95C860.247 1389.44 841.404 1387.61 821.66 1387.45C805.751 1387.34 790.889 1387.11 776.233 1384.63C741.512 1378.71 702.79 1380.68 669.651 1371.97C625.371 1360.36 590.044 1337.13 563.498 1308.6C550.533 1294.66 539.056 1279.03 531.945 1261.06C525.838 1245.62 526.934 1226.36 528.859 1207.9C532.626 1171.72 544.904 1131.03 569.345 1093.36C623.222 1010.28 721.785 1041.91 776.364 1055.57C801.468 1061.84 834.327 1074.99 867.966 1062.49C891.997 1053.56 915.211 1042.59 939.456 1035.42C1004.57 1016.17 1090.01 1007.25 1109.5 1056.27C1117.84 1077.24 1113.91 1103.8 1115.14 1127.62C1116.4 1152.14 1122.58 1174.3 1128.28 1196.95C1133.62 1218.12 1134.19 1237.37 1119.01 1263.06C1111.77 1275.33 1098.64 1283.13 1085.82 1292.09C1064.74 1306.79 1043.36 1321.28 1021.73 1334.97Z" stroke="#5532D5" stroke-width="2"/>
<path d="M1004.72 1321.38C931.684 1358.62 840.124 1380.95 775.704 1368.48C699.93 1353.81 629.129 1330.64 583.196 1284.33C561.899 1262.86 541.739 1237.3 543.785 1202.75C545.334 1176.47 551.489 1143.12 572.621 1115.57C624.308 1048.16 712.307 1067.1 763.055 1077.5C790.375 1083.1 820.156 1093.45 852.573 1090.04C871.37 1088.06 892.48 1079.63 911.778 1075.37C970.264 1062.48 1026.94 1066.81 1056.97 1098.4C1070.84 1113.01 1077.77 1132.27 1085.33 1150.78C1093.07 1169.72 1102.4 1187.94 1108.83 1207.57C1113.96 1223.25 1118.18 1242.9 1099.2 1262.15C1075.28 1286.4 1034.54 1306.17 1004.72 1321.38Z" stroke="#5532D5" stroke-width="2"/>
</g>
</svg>
