<svg width="448" height="2534" viewBox="0 0 448 2534" fill="none" xmlns="http://www.w3.org/2000/svg">
<g opacity="0.1">
<path d="M-780.576 922.962C-753.793 908.201 -741.311 859.374 -733.31 837.056C-717.484 792.926 -704.614 748.987 -691.14 705.069C-677.667 661.152 -664.32 617.195 -647.309 573.035C-636.271 544.365 -624.302 511.225 -601.394 483.342C-552.572 423.93 -518.456 508.344 -505.843 528.143C-473.739 578.504 -442.526 639.336 -383.117 670.497C-347.653 689.1 -308.637 682.905 -264.514 650.597C-250.155 640.107 -235.636 624.373 -217.789 621.206C-198.728 617.82 -182.616 625.212 -170.723 632.156C-127.371 657.501 -100.983 699.477 -76.2722 737.87C-49.567 779.238 -26.6859 823.225 -3.03559 865.869C6.99225 883.952 27.4274 897.386 45.0642 910.179C68.1816 926.953 92.4743 942.733 116.413 958.817C169.016 994.229 223.806 1030.4 258.899 1079.12C280.88 1109.62 294.958 1148.41 273.485 1193.2C262.708 1215.69 239.948 1236.83 220.524 1257.05C197.068 1281.49 173.143 1305.74 150.449 1330.52C77.358 1410.33 13.4964 1502.13 47.9406 1575.55C53.1545 1586.66 61.0945 1596.02 67.3522 1606.49C71.3287 1613.17 72.1022 1620.62 62.481 1629.17C38.3511 1650.64 -16.1789 1654.49 -42.5736 1658.28C-100.353 1666.57 -157.237 1671.38 -214.603 1678.13C-252.547 1682.58 -306.902 1684.1 -344.783 1704.53C-378.536 1722.74 -387.008 1765 -394.953 1789.84C-402.384 1813.1 -409.447 1851.75 -440.124 1870.64C-454.998 1879.8 -471.253 1880.21 -484.828 1878.77C-508.581 1876.24 -528.256 1869.12 -553.781 1869.11C-595.648 1869.11 -648.04 1878.63 -690.144 1904.78C-719.318 1922.91 -732.94 1944.79 -744.041 1969.23C-748.709 1979.5 -751.674 1987.39 -764.36 1994.74C-784.496 2006.41 -808.928 2013.06 -830.186 2019.16C-906.253 2040.97 -983.597 2055.16 -1057.93 2064.53C-1095.08 2069.21 -1132.66 2072.88 -1167.47 2071.18C-1190.31 2070.09 -1218.4 2067.14 -1227.1 2051.19C-1237.2 2032.72 -1237.59 2007.56 -1239.71 1985.4C-1243.67 1944 -1245.16 1901.79 -1246.14 1859.47C-1248.4 1761.59 -1247.07 1662.68 -1242.15 1562.74C-1238.63 1492.31 -1235.68 1420.74 -1219.77 1347.63C-1216.52 1333.07 -1211.65 1318.55 -1205.25 1304.28C-1198.51 1288.85 -1199.42 1274.78 -1201.75 1261.28C-1216.18 1177.48 -1277.06 1110.32 -1327.48 1045.83C-1340.27 1029.46 -1353.08 1013.1 -1365.01 996.189C-1375.28 981.655 -1390.53 965.878 -1391.12 946.621C-1392.31 908.683 -1322.6 904.266 -1293.97 902.866C-1193.19 897.925 -1098.53 910.909 -1004.46 919.475C-959.674 923.519 -914.888 927.778 -868.906 929.613C-844.988 930.588 -804.056 935.904 -780.576 922.962Z" stroke="#8E76E3" stroke-width="2"/>
<path d="M-768.766 933.802C-746.859 906.423 -737.249 874.161 -726.941 846.106C-712.097 805.727 -699.261 765.433 -685.439 725.1C-672.366 686.96 -659.027 648.61 -641.448 610.295C-630.728 586.932 -618.342 558.2 -595.078 537.183C-544.661 491.615 -512.73 570.856 -501.158 588.4C-472.408 632.024 -443.21 683.338 -389.55 708.891C-356.045 724.847 -318.494 718.384 -277.674 688.733C-263.552 678.475 -252.504 667.875 -234.967 664.046C-214.673 659.61 -197.312 665.447 -183.695 672.056C-141.037 692.757 -113.989 730.02 -89.6199 764.43C-64.4452 799.978 -39.7027 837.828 -22.8159 876.329C-16.0595 891.721 0.475663 904.646 14.0172 916.133C34.8618 933.796 56.8989 950.51 78.3132 967.721C121.838 1002.69 165.316 1039.21 193.127 1085.14C213.205 1118.31 224.537 1158.14 208.873 1203.44C192.979 1249.37 150.994 1288.86 113.166 1330.21C47.7484 1401.66 -29.7669 1492.23 -12.0256 1565C-9.33964 1576.04 -2.87734 1584.53 1.75077 1594.49C4.13526 1599.61 6.1985 1605.79 0.0401474 1612.42C-15.9487 1629.63 -61.458 1631.35 -79.7172 1633.55C-130.178 1639.61 -179.741 1642.5 -229.841 1647.33C-269.624 1651.16 -315.01 1653.26 -356.131 1668.83C-406.032 1687.71 -415.855 1748.1 -440.35 1780.85C-482.829 1837.64 -541.841 1806.39 -582.021 1797.05C-628.155 1786.32 -697.187 1794.4 -731.544 1845.45C-744.682 1864.97 -749.21 1882.63 -770.814 1899.96C-804.598 1927.07 -850.096 1945.45 -890.023 1960.31C-950.052 1982.63 -1012.07 1999.89 -1071.85 2009.95C-1114.67 2017.15 -1182.42 2027.29 -1194.79 1994.63C-1203.15 1972.65 -1204.2 1946.24 -1205.97 1921.36C-1208.62 1884.1 -1209.16 1846.18 -1209.01 1808.08C-1208.78 1720.19 -1204.32 1630.96 -1195.05 1540.8C-1188.71 1479.28 -1131.08 1285.8 -1131.72 1273.97C-1133.65 1238.69 -1153.4 1208.19 -1171.24 1180.5C-1194.98 1143.67 -1222.99 1109.42 -1250.46 1074.91C-1263.51 1058.48 -1277.32 1042.34 -1288.84 1024.94C-1297.04 1012.56 -1307.31 996.018 -1301.87 978.263C-1291.27 943.616 -1225.69 939.86 -1198.07 938.039C-1113.41 932.426 -1033.25 940.067 -953.138 944.521C-913.804 946.697 -874.374 949.177 -833.61 948.382C-817.156 948.053 -782.293 950.718 -768.766 933.802Z" stroke="#8E76E3" stroke-width="2"/>
<path d="M-760.082 937.717C-720.977 874.286 -701.131 808.853 -674.771 744.362C-661.536 711.985 -634.894 681.312 -615.653 649.107C-605.649 632.358 -592.918 611.317 -573.268 598.388C-520.697 563.814 -491.425 634.966 -478.353 653.9C-453.058 690.501 -425.987 732.673 -378.639 752.526C-349.701 764.651 -315.735 759.832 -280.909 735.549C-265.457 724.776 -253.021 714.363 -234.398 710.097C-215.532 705.775 -198.733 709.088 -184.755 714.103C-144.57 728.503 -117.577 758.956 -94.4015 787.246C-67.3183 820.377 -44.2035 856.217 -25.3337 894.337C-8.80587 927.679 23.8294 952.003 51.06 978.489C87.1246 1013.58 121.968 1050.33 143.88 1094.45C161.178 1129.29 169.292 1169.51 156.823 1214.21C144.089 1259.67 110.513 1301.18 72.5522 1342.82C15.166 1405.77 -62.9812 1487.84 -60.6794 1555.77C-60.3521 1565.65 -56.833 1573.11 -53.143 1581.47C-51.3485 1585.53 -48.7077 1590.6 -53.9061 1595.94C-66.4235 1608.81 -104.968 1607.66 -117.746 1608.44C-158.557 1610.97 -198.6 1611.41 -239.186 1613.31C-277.073 1615.09 -316.935 1616.25 -356.94 1626.36C-420.645 1642.49 -428.052 1706.45 -481.943 1734.26C-515.403 1751.52 -550.285 1744.01 -575.533 1736.77C-606.597 1727.83 -635.566 1706.34 -677.788 1716.47C-709.239 1724.01 -718.786 1744.41 -734.64 1764.77C-761.505 1799.27 -808.654 1826.42 -850.268 1847.13C-906.501 1875.12 -966.944 1897.35 -1025.34 1910.83C-1051.81 1916.95 -1079.99 1922.12 -1104.17 1920.25C-1126.83 1918.5 -1136.74 1910.54 -1141.28 1894.13C-1155.17 1843.86 -1150.56 1782.91 -1147.83 1725.92C-1144.4 1654.32 -1137.15 1581.59 -1124.51 1507.97C-1115.89 1457.76 -1106.09 1405.88 -1084.52 1354.16C-1078.9 1340.68 -1072.52 1326.53 -1062.52 1313.45C-1055.03 1303.59 -1047.86 1297.24 -1046.29 1286.67C-1041.61 1255.38 -1062.83 1227.02 -1077.54 1204.28C-1101.05 1167.91 -1129.07 1134.25 -1156.34 1100.24C-1172.27 1080.41 -1207.23 1045.75 -1187.31 1012.05C-1170.12 982.961 -1116.66 977.457 -1089.1 974.506C-1019.4 967.049 -952.952 970.156 -886.222 970.261C-855.639 970.31 -839.445 966.255 -807.463 962.621C-803.655 962.191 -799.177 961.86 -794.366 961.219C-789.419 960.562 -784.114 959.513 -779.58 957.551C-769.842 953.323 -764.912 945.523 -760.082 937.717Z" stroke="#8E76E3" stroke-width="2"/>
<path d="M-756.943 952.237C-723.07 894.862 -701.51 836.273 -672.065 778.464C-658.863 752.544 -644.706 725.918 -624.995 700.886C-614.397 687.424 -600.42 671.643 -582.346 663.862C-530.473 641.538 -504.734 699.147 -489.649 719.857C-467.285 750.656 -442.189 786.367 -399.564 801.099C-371.645 810.75 -341.988 803.869 -310.769 782.131C-277.285 758.811 -246.746 753.27 -216.186 761.97C-177.892 772.888 -150.812 798.308 -128.024 822.842C-100.706 852.296 -77.8202 885.013 -59.7785 920.403C-42.2823 954.756 -15.6066 982.718 8.46008 1013.18C40.3642 1053.58 69.2304 1097.5 77.8656 1149.98C85.3821 1195.67 74.6725 1246.52 43.0149 1297.57C9.98467 1350.87 -42.9745 1397.29 -83.8823 1448.27C-109.397 1480.08 -142.613 1523.13 -141.416 1555.81C-141.017 1566.7 -126.706 1579.14 -151.508 1583.83C-165.693 1586.52 -180.263 1584.99 -193.272 1584.6C-214.294 1583.98 -235.044 1582.81 -255.932 1581.91C-300.46 1580 -346.485 1577.05 -394.394 1583.57C-454.724 1591.76 -477.585 1641.16 -530.058 1665.38C-558.295 1678.42 -586.721 1678.06 -610.88 1674.44C-626.522 1672.1 -641.114 1668.17 -655.175 1663.69C-669.861 1659.02 -683.305 1651.34 -700.037 1649.41C-723.856 1646.65 -741.293 1663.04 -762.239 1677.47C-799.149 1702.89 -838.19 1725.39 -878.763 1744.65C-928.498 1768.26 -981.654 1788.89 -1032.98 1799.15C-1052.95 1803.15 -1074.74 1806.29 -1091.66 1802.51C-1108.59 1798.73 -1113.49 1787.93 -1116.34 1774.54C-1124.83 1734.87 -1119.77 1687.87 -1115.03 1643.23C-1109.1 1587.36 -1099.42 1530.48 -1084.45 1473.01C-1074.11 1433.35 -1061.83 1392.51 -1040.38 1352.33C-1034.14 1340.63 -1027.03 1328.87 -1018.08 1317.61C-1011.94 1309.88 -1002.64 1302.44 -999.306 1294.29C-988.932 1268.79 -1011.27 1241.24 -1022.15 1223.95C-1043.85 1189.45 -1073.38 1159.97 -1095.39 1125.69C-1107.4 1106.99 -1127.52 1078.41 -1109.75 1050.12C-1093.04 1023.52 -1048.49 1014.95 -1020.92 1010.3C-966.704 1001.14 -914.496 1000.12 -861.729 995.934C-840.02 994.204 -817.094 992.784 -794.416 986.95C-774.219 981.739 -765.63 966.943 -756.943 952.237Z" stroke="#8E76E3" stroke-width="2"/>
<path d="M-753.742 960.044C-722.562 912.066 -699.02 861.916 -667.211 813.371C-648.582 784.95 -617.577 736.596 -574.555 727.148C-527.292 716.748 -503.481 757.621 -487.076 779.801C-467.55 806.201 -443.872 836.79 -405.062 847.291C-392.791 850.613 -378.543 851.367 -362.991 846.482C-346.349 841.254 -335.001 830.803 -320.208 822.155C-289.177 804.017 -257.208 802.347 -231.008 808.954C-193.973 818.286 -166.771 840.412 -143.95 862.884C-118.256 888.206 -96.748 916.79 -79.8794 948.036C-63.7992 977.794 -46.717 1006.6 -29.2893 1035.66C-6.47139 1073.65 12.5611 1114.42 17.2412 1160.82C21.8404 1206.53 10.8594 1256.4 -17.95 1306.61C-46.0699 1355.6 -88.1833 1401.32 -132.447 1445.4C-157.571 1470.42 -194.193 1509.49 -197.963 1538.43C-199.652 1551.31 -194.25 1560.08 -217.066 1559.86C-245.796 1559.58 -272.522 1552.64 -299.137 1548.66C-337.538 1542.94 -376.755 1536.99 -418.475 1537.38C-445.117 1537.63 -467.804 1543.66 -494.071 1559.01C-514.077 1570.72 -532.731 1584.39 -553.872 1594.21C-603.485 1617.27 -649.686 1610.82 -692.079 1605.97C-719.346 1602.85 -741.287 1598.38 -773.175 1606.55C-810.869 1616.19 -848.788 1632.32 -886.21 1645.47C-927.309 1659.89 -970.449 1674.19 -1011.07 1678.81C-1047.23 1682.94 -1068.52 1675.53 -1072.56 1649.22C-1078.88 1608.19 -1066.76 1557.72 -1055.1 1511.85C-1043.24 1465.16 -1027.52 1417.05 -1001.98 1369.77C-988.185 1344.24 -968.268 1321.07 -952.042 1296.22C-931.685 1264.99 -961.738 1235.99 -975.549 1216.54C-998.479 1184.26 -1088.18 1092.28 -984.565 1048.59C-941.313 1030.35 -894.499 1026.13 -851.762 1018.39C-834.03 1015.18 -812.074 1012.55 -794.265 1004.27C-774.873 995.257 -763.136 974.479 -753.742 960.044Z" stroke="#8E76E3" stroke-width="2"/>
<path d="M-750.62 974.659C-720.516 934.561 -694.582 892.097 -659.858 852.824C-637.379 827.372 -605.384 796.953 -568.597 793.784C-527.081 790.211 -501.503 818.433 -484.178 839.973C-466.329 862.172 -446.57 889.51 -410.204 895.732C-398.625 897.706 -384.845 897.017 -371.261 890.86C-358.229 884.958 -347.177 875.438 -333.951 869.351C-304.255 855.678 -274.541 854.007 -249.519 859.123C-175.505 874.265 -129.38 931.844 -99.785 982.787C-84.9757 1008.29 -73.8628 1036.79 -62.089 1064.17C-46.8115 1099.7 -35.1859 1137.29 -34.1493 1178.58C-31.9321 1266.36 -85.0118 1355.06 -164.774 1440.37C-189.881 1467.22 -218.795 1493.07 -234.757 1522.35C-243.007 1537.46 -253.11 1540.67 -269.26 1538.68C-294.504 1535.57 -317.044 1527.25 -340.077 1521.06C-372.834 1512.26 -406.152 1503.19 -441.862 1499.1C-466.477 1496.27 -488.455 1496.73 -516.556 1508.6C-536.593 1517.06 -555.689 1528.1 -575.424 1537.39C-612.918 1555.04 -653.058 1567.19 -690.472 1570.29C-720.142 1572.71 -748.746 1571.93 -776.571 1570.17C-812.638 1567.73 -849.646 1568.7 -887.007 1573.06C-938.654 1579.09 -1029.81 1597.73 -1031.22 1546.13C-1032.77 1489.2 -997.701 1415.87 -957.24 1356.66C-943.655 1336.78 -924.869 1316.28 -918.056 1295.77C-907.891 1265.07 -919.354 1245.85 -932.027 1222.9C-950.99 1188.52 -1003.55 1119.91 -924.276 1075.48C-892.868 1057.87 -858.166 1050.38 -825.47 1037.99C-788.832 1024.14 -771.122 1002.01 -750.62 974.659Z" stroke="#8E76E3" stroke-width="2"/>
<path d="M-746.784 990.151C-704.421 943.602 -640.715 856.332 -565.876 855.238C-526.329 854.648 -499.124 876.996 -479.1 897.274C-462.959 913.576 -448.106 935.765 -416.55 937.489C-393.351 938.753 -370.755 920.188 -346.82 912.441C-317.142 902.839 -288.735 902.53 -264.32 907.892C-196.087 922.873 -151.273 971.097 -121.752 1017.88C-91.1026 1066.47 -75.3882 1129.9 -77.618 1192.63C-80.4087 1270.85 -122.645 1351.42 -189.859 1428.39C-202.269 1442.59 -215.366 1456.5 -228.087 1470.57C-236.615 1480.03 -243.824 1491.06 -253.33 1500.04C-269.176 1514.98 -287.41 1517.57 -304.453 1515.04C-328.985 1511.41 -350.156 1502.05 -371.364 1494.22C-400.379 1483.51 -429.324 1472.18 -460.645 1464.59C-481.711 1459.5 -504.192 1454.4 -531.106 1463.19C-549.463 1469.17 -567.45 1478.17 -584.632 1487.72C-621.468 1508.19 -652.052 1523.3 -692.021 1530.66C-757.665 1542.7 -823.113 1541.79 -881.038 1534.7C-926.499 1529.13 -997.489 1519.8 -994.348 1473.72C-991.569 1432.4 -954.602 1388.89 -927.833 1348.01C-914.82 1328.14 -904.064 1307.93 -898.072 1287.83C-890.522 1262.48 -892.017 1243.33 -899.906 1222.51C-913.18 1187.46 -938.867 1137.72 -884.032 1094.64C-863.797 1078.74 -839.572 1068.24 -818.082 1053.95C-789.65 1035.07 -768.151 1013.63 -746.784 990.151Z" stroke="#8E76E3" stroke-width="2"/>
<path d="M-738.485 1009.91C-688.372 965.845 -625.591 909.629 -557.902 912.774C-525.111 914.297 -499.831 927.846 -478.399 942.615C-463.045 953.189 -448.182 975.197 -420.647 971.765C-400.39 969.226 -376.909 957.561 -355.807 953.742C-328.16 948.788 -300.848 949.456 -276.032 955.692C-214.088 970.989 -171.174 1011.57 -142.007 1054.04C-78.6484 1146.32 -103.084 1288.86 -204.176 1412.12C-234.308 1448.86 -264.448 1491.5 -317.732 1487.92C-375.872 1484 -418.728 1453.62 -467.313 1437.55C-485.865 1431.4 -508.665 1423.11 -533.659 1427.7C-548.686 1430.45 -564.808 1438.9 -578.917 1446.37C-614.866 1465.38 -647.997 1481.02 -686.362 1489.96C-745.649 1503.77 -805.615 1506.87 -858.666 1502.24C-904.927 1498.19 -962.395 1487.77 -955.916 1441.58C-950.905 1406.14 -919.777 1368.38 -901.091 1332.75C-880.276 1293.08 -872.948 1254.11 -878.345 1218.67C-883.624 1184.21 -893.821 1148.83 -857.698 1109.37C-845.307 1095.84 -828.555 1079.62 -812.756 1068.44C-786.828 1050.21 -762.012 1030.65 -738.482 1009.91L-738.485 1009.91Z" stroke="#8E76E3" stroke-width="2"/>
</g>
</svg>
