<svg width="17" height="16" viewBox="0 0 17 16" fill="none" xmlns="http://www.w3.org/2000/svg">
<g id="_icon / chevron.right">
<path id="Vector" d="M9.3955 8.08225L5.7385 4.42525C5.66541 4.3587 5.60642 4.27815 5.56502 4.18839C5.52361 4.09863 5.50064 4.00147 5.49745 3.90267C5.49427 3.80387 5.51094 3.70543 5.54648 3.61319C5.58201 3.52095 5.6357 3.43677 5.70435 3.36565C5.773 3.29452 5.85522 3.23789 5.94614 3.19911C6.03707 3.16033 6.13485 3.14018 6.2337 3.13987C6.33256 3.13955 6.43047 3.15907 6.52164 3.19727C6.61281 3.23547 6.69539 3.29157 6.7645 3.36225L6.7825 3.38025L10.9625 7.55925C11.1011 7.69784 11.1789 7.88578 11.1789 8.08175C11.1789 8.27772 11.1011 8.46567 10.9625 8.60425L6.7835 12.7833C6.71606 12.8531 6.63554 12.9089 6.54653 12.9476C6.45752 12.9862 6.36176 13.007 6.26473 13.0087C6.16769 13.0104 6.07127 12.9929 5.98098 12.9573C5.89069 12.9217 5.8083 12.8687 5.7385 12.8013C5.6687 12.7338 5.61287 12.6533 5.57419 12.5643C5.53551 12.4753 5.51474 12.3795 5.51307 12.2825C5.5114 12.1854 5.52886 12.089 5.56445 11.9987C5.60004 11.9084 5.65306 11.8261 5.7205 11.7563L5.7385 11.7383L9.3955 8.08225Z" fill="#5532D5" stroke="#5532D5" stroke-width="0.5"/>
</g>
</svg>
