<svg width="17" height="16" viewBox="0 0 17 16" fill="none" xmlns="http://www.w3.org/2000/svg">
<g id="vuesax/linear/24-support">
<g id="24-support">
<path id="Vector" d="M12.1543 12.5732H11.6476C11.1143 12.5732 10.6076 12.7798 10.2343 13.1532L9.0943 14.2799C8.5743 14.7932 7.72763 14.7932 7.20763 14.2799L6.06763 13.1532C5.69429 12.7798 5.18096 12.5732 4.6543 12.5732H4.1543C3.04763 12.5732 2.1543 11.6865 2.1543 10.5932V3.31982C2.1543 2.22649 3.04763 1.33984 4.1543 1.33984H12.1543C13.261 1.33984 14.1543 2.22649 14.1543 3.31982V10.5932C14.1543 11.6798 13.261 12.5732 12.1543 12.5732Z" stroke="#5532D5" stroke-width="1.3" stroke-miterlimit="10" stroke-linecap="round" stroke-linejoin="round"/>
<g id="Group">
<path id="Vector_2" d="M4.82129 6.1062C4.82129 5.4862 5.32796 4.97949 5.94796 4.97949C6.56796 4.97949 7.07463 5.4862 7.07463 6.1062C7.07463 7.35953 5.29462 7.49286 4.90129 8.6862C4.82129 8.93286 5.02795 9.17952 5.28795 9.17952H7.07463" stroke="#5532D5" stroke-width="1.3" stroke-linecap="round" stroke-linejoin="round"/>
<path id="Vector_3" d="M10.8475 9.17324V5.3666C10.8475 5.19327 10.7341 5.0399 10.5675 4.99323C10.4008 4.94657 10.2208 5.01323 10.1275 5.1599C9.64748 5.93323 9.12747 6.81324 8.67414 7.58658C8.60081 7.71324 8.60081 7.87991 8.67414 8.00658C8.74747 8.13324 8.88748 8.2132 9.04081 8.2132H11.4875" stroke="#5532D5" stroke-width="1.3" stroke-linecap="round" stroke-linejoin="round"/>
</g>
</g>
</g>
</svg>
