<svg width="17" height="16" viewBox="0 0 17 16" fill="none" xmlns="http://www.w3.org/2000/svg">
<g id="vuesax/linear/headphone">
<g id="headphone">
<path id="Vector" d="M3.79433 12.3262V10.3795C3.79433 9.73288 4.301 9.15288 5.021 9.15288C5.66766 9.15288 6.24766 9.65954 6.24766 10.3795V12.2529C6.24766 13.5529 5.16766 14.6329 3.86766 14.6329C2.56766 14.6329 1.48766 13.5462 1.48766 12.2529V8.14621C1.41433 4.39954 4.37433 1.36621 8.121 1.36621C11.8677 1.36621 14.821 4.39954 14.821 8.07288V12.1795C14.821 13.4795 13.741 14.5595 12.441 14.5595C11.141 14.5595 10.061 13.4795 10.061 12.1795V10.3062C10.061 9.65954 10.5677 9.07954 11.2877 9.07954C11.9343 9.07954 12.5143 9.58621 12.5143 10.3062V12.3262" stroke="#5532D5" stroke-width="1.3" stroke-linecap="round" stroke-linejoin="round"/>
</g>
</g>
</svg>
