<svg width="16" height="16" viewBox="0 0 16 16" fill="none" xmlns="http://www.w3.org/2000/svg">
<g id="vuesax/linear/headphone">
<g id="headphone">
<path id="Vector" d="M3.64003 12.3262V10.3795C3.64003 9.73288 4.1467 9.15288 4.8667 9.15288C5.51337 9.15288 6.09337 9.65954 6.09337 10.3795V12.2529C6.09337 13.5529 5.01337 14.6329 3.71337 14.6329C2.41337 14.6329 1.33336 13.5462 1.33336 12.2529V8.14621C1.26003 4.39954 4.22003 1.36621 7.9667 1.36621C11.7134 1.36621 14.6667 4.39954 14.6667 8.07288V12.1795C14.6667 13.4795 13.5867 14.5595 12.2867 14.5595C10.9867 14.5595 9.9067 13.4795 9.9067 12.1795V10.3062C9.9067 9.65954 10.4134 9.07954 11.1334 9.07954C11.78 9.07954 12.36 9.58621 12.36 10.3062V12.3262" stroke="#1DCE80" stroke-width="1.3" stroke-linecap="round" stroke-linejoin="round"/>
</g>
</g>
</svg>
