<svg width="16" height="16" viewBox="0 0 16 16" fill="none" xmlns="http://www.w3.org/2000/svg">
<g id="vuesax/linear/24-support">
<g id="24-support">
<path id="Vector" d="M12 12.5732H11.4933C10.96 12.5732 10.4533 12.7798 10.08 13.1532L8.94 14.2799C8.42 14.7932 7.57333 14.7932 7.05333 14.2799L5.91333 13.1532C5.54 12.7798 5.02667 12.5732 4.5 12.5732H4C2.89333 12.5732 2 11.6865 2 10.5932V3.31982C2 2.22649 2.89333 1.33984 4 1.33984H12C13.1067 1.33984 14 2.22649 14 3.31982V10.5932C14 11.6798 13.1067 12.5732 12 12.5732Z" stroke="#1DCE80" stroke-width="1.3" stroke-miterlimit="10" stroke-linecap="round" stroke-linejoin="round"/>
<g id="Group">
<path id="Vector_2" d="M4.66699 6.1062C4.66699 5.4862 5.17366 4.97949 5.79366 4.97949C6.41366 4.97949 6.92033 5.4862 6.92033 6.1062C6.92033 7.35953 5.14032 7.49286 4.74699 8.6862C4.66699 8.93286 4.87366 9.17952 5.13366 9.17952H6.92033" stroke="#1DCE80" stroke-width="1.3" stroke-linecap="round" stroke-linejoin="round"/>
<path id="Vector_3" d="M10.6932 9.17324V5.3666C10.6932 5.19327 10.5798 5.0399 10.4132 4.99323C10.2465 4.94657 10.0665 5.01323 9.97318 5.1599C9.49318 5.93323 8.97318 6.81324 8.51984 7.58658C8.44651 7.71324 8.44651 7.87991 8.51984 8.00658C8.59318 8.13324 8.73318 8.2132 8.88651 8.2132H11.3332" stroke="#1DCE80" stroke-width="1.3" stroke-linecap="round" stroke-linejoin="round"/>
</g>
</g>
</g>
</svg>
