<svg width="17" height="16" viewBox="0 0 17 16" fill="none" xmlns="http://www.w3.org/2000/svg">
<g id="vuesax/linear/message-text">
<g id="message-text">
<path id="Vector" d="M5.82064 12.6663H5.4873C2.82064 12.6663 1.4873 11.9997 1.4873 8.66634V5.33301C1.4873 2.66634 2.82064 1.33301 5.4873 1.33301H10.8206C13.4873 1.33301 14.8206 2.66634 14.8206 5.33301V8.66634C14.8206 11.333 13.4873 12.6663 10.8206 12.6663H10.4873C10.2806 12.6663 10.0806 12.7663 9.95397 12.933L8.95397 14.2663C8.51397 14.853 7.79397 14.853 7.35397 14.2663L6.35397 12.933C6.2473 12.7863 6.00064 12.6663 5.82064 12.6663Z" stroke="#5532D5" stroke-width="1.3" stroke-miterlimit="10" stroke-linecap="round" stroke-linejoin="round"/>
<path id="Vector_2" d="M4.82129 5.33301H11.488" stroke="#5532D5" stroke-width="1.3" stroke-linecap="round" stroke-linejoin="round"/>
<path id="Vector_3" d="M4.82129 8.66699H8.82129" stroke="#5532D5" stroke-width="1.3" stroke-linecap="round" stroke-linejoin="round"/>
</g>
</g>
</svg>
