<svg width="438" height="2157" viewBox="0 0 438 2157" fill="none" xmlns="http://www.w3.org/2000/svg">
<g opacity="0.08">
<path d="M-790.578 545.96C-763.795 531.199 -751.313 482.372 -743.311 460.054C-727.486 415.924 -714.616 371.985 -701.142 328.068C-687.669 284.15 -674.322 240.193 -657.311 196.033C-646.273 167.363 -634.304 134.223 -611.396 106.34C-562.574 46.9285 -528.458 131.342 -515.845 151.141C-483.741 201.502 -452.528 262.334 -393.119 293.495C-357.654 312.098 -318.639 305.904 -274.516 273.595C-260.157 263.105 -245.638 247.371 -227.791 244.204C-208.73 240.818 -192.618 248.21 -180.724 255.154C-137.373 280.499 -110.985 322.475 -86.2742 360.868C-59.569 402.236 -36.6879 446.223 -13.0375 488.867C-3.00971 506.95 17.4254 520.384 35.0622 533.178C58.1797 549.951 82.4724 565.731 106.412 581.815C159.014 617.228 213.804 653.401 248.897 702.113C270.878 732.62 284.956 771.406 263.483 816.198C252.706 838.686 229.946 859.825 210.522 880.046C187.066 904.492 163.142 928.734 140.447 953.514C67.3561 1033.33 3.49442 1125.13 37.9386 1198.55C43.1525 1209.66 51.0925 1219.02 57.3502 1229.49C61.3268 1236.16 62.1003 1243.61 52.479 1252.17C28.3492 1273.64 -26.1809 1277.49 -52.5756 1281.28C-110.355 1289.56 -167.239 1294.38 -224.604 1301.13C-262.549 1305.58 -316.904 1307.1 -354.785 1327.53C-388.538 1345.74 -397.01 1388 -404.955 1412.84C-412.386 1436.1 -419.449 1474.75 -450.126 1493.64C-464.999 1502.8 -481.255 1503.21 -494.83 1501.77C-518.583 1499.24 -538.258 1492.11 -563.783 1492.1C-605.65 1492.1 -658.042 1501.63 -700.146 1527.78C-729.32 1545.91 -742.942 1567.79 -754.043 1592.23C-758.711 1602.5 -761.675 1610.38 -774.362 1617.73C-794.498 1629.41 -818.93 1636.06 -840.188 1642.15C-916.255 1663.97 -993.599 1678.15 -1067.94 1687.52C-1105.08 1692.21 -1142.67 1695.88 -1177.47 1694.18C-1200.31 1693.09 -1228.4 1690.14 -1237.1 1674.19C-1247.2 1655.72 -1247.6 1630.55 -1249.72 1608.39C-1253.67 1567 -1255.16 1524.78 -1256.14 1482.46C-1258.4 1384.59 -1257.07 1285.68 -1252.16 1185.74C-1248.63 1115.31 -1245.68 1043.74 -1229.77 970.631C-1226.52 956.072 -1221.66 941.55 -1215.25 927.283C-1208.51 911.853 -1209.43 897.78 -1211.75 884.279C-1226.19 800.476 -1287.06 733.323 -1337.48 668.832C-1350.27 652.459 -1363.08 636.097 -1375.02 619.187C-1385.28 604.653 -1400.53 588.876 -1401.12 569.619C-1402.31 531.681 -1332.6 527.265 -1303.98 525.864C-1203.19 520.923 -1108.53 533.907 -1014.46 542.473C-969.676 546.517 -924.89 550.776 -878.908 552.611C-854.99 553.587 -814.058 558.902 -790.578 545.96Z" stroke="#5532D5" stroke-width="2"/>
<path d="M-778.769 556.802C-756.862 529.423 -747.252 497.161 -736.944 469.106C-722.1 428.727 -709.263 388.433 -695.442 348.1C-682.368 309.96 -669.03 271.61 -651.451 233.295C-640.731 209.932 -628.345 181.2 -605.081 160.183C-554.663 114.615 -522.733 193.856 -511.161 211.4C-482.411 255.024 -453.212 306.338 -399.553 331.891C-366.048 347.847 -328.497 341.384 -287.677 311.733C-273.555 301.475 -262.507 290.875 -244.97 287.046C-224.676 282.61 -207.315 288.447 -193.698 295.056C-151.039 315.757 -123.992 353.02 -99.6226 387.43C-74.4478 422.978 -49.7054 460.828 -32.8186 499.329C-26.0622 514.721 -9.52702 527.646 4.01452 539.133C24.8591 556.796 46.8963 573.51 68.3105 590.721C111.835 625.689 155.313 662.207 183.124 708.142C203.203 741.306 214.534 781.139 198.87 826.443C182.976 872.366 140.992 911.858 103.164 953.207C37.7457 1024.66 -39.7696 1115.23 -22.0282 1188C-19.3423 1199.04 -12.88 1207.53 -8.25191 1217.49C-5.86743 1222.61 -3.80419 1228.79 -9.96254 1235.42C-25.9514 1252.63 -71.4607 1254.35 -89.7198 1256.55C-140.18 1262.61 -189.743 1265.5 -239.844 1270.33C-279.626 1274.16 -325.013 1276.26 -366.134 1291.83C-416.035 1310.71 -425.858 1371.1 -450.352 1403.85C-492.832 1460.64 -551.843 1429.39 -592.024 1420.05C-638.158 1409.32 -707.189 1417.4 -741.547 1468.45C-754.684 1487.97 -759.213 1505.63 -780.817 1522.96C-814.601 1550.07 -860.099 1568.45 -900.026 1583.31C-960.054 1605.63 -1022.07 1622.89 -1081.86 1632.95C-1124.67 1640.15 -1192.42 1650.29 -1204.8 1617.63C-1213.15 1595.65 -1214.2 1569.24 -1215.97 1544.36C-1218.63 1507.1 -1219.17 1469.18 -1219.02 1431.08C-1218.79 1343.19 -1214.33 1253.96 -1205.05 1163.8C-1198.71 1102.28 -1141.08 908.803 -1141.72 896.969C-1143.65 861.693 -1163.4 831.193 -1181.25 803.503C-1204.98 766.67 -1232.99 732.418 -1260.46 697.914C-1273.52 681.48 -1287.32 665.336 -1298.84 647.941C-1307.04 635.559 -1317.31 619.018 -1311.88 601.263C-1301.27 566.616 -1235.69 562.86 -1208.07 561.039C-1123.41 555.426 -1043.26 563.067 -963.14 567.521C-923.807 569.697 -884.376 572.177 -843.612 571.382C-827.158 571.053 -792.296 573.718 -778.769 556.802Z" stroke="#5532D5" stroke-width="2"/>
<path d="M-770.083 560.715C-730.979 497.285 -711.132 431.851 -684.773 367.36C-671.538 334.983 -644.896 304.31 -625.655 272.105C-615.651 255.356 -602.92 234.315 -583.27 221.386C-530.699 186.812 -501.427 257.964 -488.355 276.898C-463.06 313.499 -435.989 355.671 -388.641 375.524C-359.703 387.649 -325.736 382.83 -290.911 358.547C-275.459 347.774 -263.023 337.361 -244.4 333.095C-225.534 328.773 -208.735 332.086 -194.757 337.101C-154.572 351.501 -127.579 381.954 -104.404 410.244C-77.3203 443.375 -54.2055 479.215 -35.3357 517.335C-18.8078 550.677 13.8274 575.001 41.058 601.487C77.1227 636.573 111.966 673.331 133.878 717.444C151.176 752.287 159.29 792.506 146.821 837.206C134.087 882.665 100.511 924.181 62.5503 965.818C5.16405 1028.77 -72.9831 1110.83 -70.6813 1178.77C-70.354 1188.65 -66.8349 1196.11 -63.145 1204.47C-61.3504 1208.53 -58.7096 1213.59 -63.9081 1218.94C-76.4254 1231.8 -114.97 1230.66 -127.748 1231.44C-168.558 1233.96 -208.602 1234.4 -249.188 1236.31C-287.075 1238.08 -326.937 1239.25 -366.942 1249.36C-430.647 1265.48 -438.054 1329.45 -491.945 1357.25C-525.405 1374.52 -560.287 1367.01 -585.535 1359.76C-616.599 1350.83 -645.568 1329.34 -687.79 1339.47C-719.241 1347.01 -728.788 1367.41 -744.642 1387.77C-771.507 1422.26 -818.656 1449.42 -860.27 1470.13C-916.503 1498.12 -976.946 1520.34 -1035.34 1533.83C-1061.81 1539.95 -1089.99 1545.11 -1114.17 1543.25C-1136.83 1541.5 -1146.74 1533.54 -1151.29 1517.12C-1165.17 1466.85 -1160.56 1405.9 -1157.83 1348.92C-1154.4 1277.32 -1147.15 1204.59 -1134.51 1130.97C-1125.89 1080.76 -1116.09 1028.88 -1094.53 977.157C-1088.9 963.673 -1082.52 949.525 -1072.53 936.446C-1065.03 926.591 -1057.87 920.234 -1056.29 909.67C-1051.61 878.373 -1072.83 850.014 -1087.54 827.275C-1111.05 790.904 -1139.08 757.249 -1166.34 723.238C-1182.27 703.406 -1217.23 668.748 -1197.32 635.05C-1180.12 605.959 -1126.66 600.455 -1099.1 597.504C-1029.41 590.047 -962.954 593.154 -896.224 593.259C-865.641 593.308 -849.447 589.253 -817.465 585.619C-813.657 585.189 -809.179 584.858 -804.368 584.217C-799.421 583.56 -794.115 582.511 -789.582 580.549C-779.844 576.321 -774.914 568.521 -770.083 560.715Z" stroke="#5532D5" stroke-width="2"/>
<path d="M-766.944 575.235C-733.072 517.86 -711.512 459.271 -682.066 401.462C-668.865 375.542 -654.708 348.916 -634.997 323.884C-624.398 310.422 -610.422 294.641 -592.347 286.86C-540.474 264.536 -514.735 322.145 -499.651 342.855C-477.287 373.654 -452.19 409.365 -409.566 424.097C-381.647 433.748 -351.989 426.867 -320.771 405.129C-287.287 381.809 -256.747 376.268 -226.188 384.968C-187.893 395.886 -160.813 421.306 -138.025 445.84C-110.708 475.294 -87.8217 508.011 -69.7799 543.401C-52.2838 577.754 -25.6081 605.716 -1.54139 636.182C30.3628 676.582 59.2289 720.5 67.8641 772.976C75.3807 818.669 64.6711 869.516 33.0135 920.565C-0.0167969 973.865 -52.976 1020.28 -93.8838 1071.27C-119.399 1103.08 -152.615 1146.13 -151.417 1178.8C-151.019 1189.7 -136.707 1202.13 -161.51 1206.83C-175.695 1209.51 -190.264 1207.99 -203.273 1207.6C-224.295 1206.98 -245.046 1205.81 -265.933 1204.91C-310.461 1203 -356.486 1200.04 -404.395 1206.56C-464.726 1214.76 -487.586 1264.16 -540.06 1288.38C-568.296 1301.42 -596.722 1301.06 -620.882 1297.44C-636.524 1295.1 -651.115 1291.17 -665.176 1286.69C-679.862 1282.02 -693.306 1274.33 -710.038 1272.41C-733.858 1269.65 -751.295 1286.04 -772.24 1300.47C-809.151 1325.88 -848.191 1348.39 -888.765 1367.64C-938.5 1391.25 -991.656 1411.88 -1042.98 1422.15C-1062.95 1426.15 -1084.74 1429.29 -1101.67 1425.51C-1118.59 1421.73 -1123.49 1410.92 -1126.34 1397.54C-1134.83 1357.86 -1129.77 1310.87 -1125.03 1266.23C-1119.1 1210.36 -1109.42 1153.48 -1094.45 1096.01C-1084.11 1056.35 -1071.84 1015.51 -1050.38 975.323C-1044.14 963.63 -1037.03 951.87 -1028.08 940.605C-1021.94 932.875 -1012.64 925.439 -1009.31 917.284C-998.934 891.793 -1021.27 864.238 -1032.15 846.952C-1053.85 812.45 -1083.38 782.966 -1105.39 748.693C-1117.41 729.99 -1137.52 701.409 -1119.75 673.118C-1103.04 646.517 -1058.49 637.952 -1030.92 633.297C-976.706 624.135 -924.497 623.115 -871.731 618.932C-850.021 617.202 -827.096 615.782 -804.418 609.948C-784.221 604.737 -775.631 589.941 -766.944 575.235Z" stroke="#5532D5" stroke-width="2"/>
<path d="M-763.744 583.042C-732.564 535.064 -709.022 484.914 -677.213 436.369C-658.584 407.948 -627.579 359.594 -584.557 350.146C-537.294 339.746 -513.483 380.619 -497.078 402.799C-477.552 429.199 -453.874 459.788 -415.064 470.289C-402.793 473.611 -388.545 474.365 -372.993 469.48C-356.351 464.252 -345.003 453.801 -330.21 445.153C-299.179 427.015 -267.21 425.345 -241.01 431.952C-203.975 441.284 -176.773 463.41 -153.952 485.882C-128.258 511.204 -106.75 539.788 -89.8813 571.034C-73.8011 600.792 -56.7189 629.594 -39.2913 658.654C-16.4733 696.644 2.55917 737.415 7.23922 783.817C11.8385 829.533 0.857401 879.394 -27.952 929.606C-56.0718 978.599 -98.1853 1024.32 -142.449 1068.4C-167.573 1093.41 -204.195 1132.49 -207.965 1161.43C-209.654 1174.31 -204.252 1183.08 -227.068 1182.86C-255.798 1182.58 -282.524 1175.63 -309.139 1171.66C-347.54 1165.94 -386.757 1159.99 -428.477 1160.38C-455.118 1160.63 -477.805 1166.65 -504.073 1182.01C-524.079 1193.72 -542.733 1207.39 -563.874 1217.21C-613.487 1240.26 -659.688 1233.82 -702.081 1228.97C-729.348 1225.85 -751.289 1221.38 -783.177 1229.54C-820.871 1239.19 -858.79 1255.32 -896.212 1268.46C-937.311 1282.89 -980.451 1297.19 -1021.07 1301.81C-1057.24 1305.94 -1078.52 1298.52 -1082.56 1272.22C-1088.88 1231.19 -1076.76 1180.71 -1065.1 1134.85C-1053.24 1088.16 -1037.52 1040.05 -1011.98 992.767C-998.187 967.237 -978.27 944.065 -962.044 919.214C-941.687 887.99 -971.74 858.986 -985.551 839.538C-1008.48 807.254 -1098.19 715.275 -994.567 671.588C-951.315 653.353 -904.501 649.131 -861.764 641.392C-844.032 638.174 -822.076 635.545 -804.267 627.266C-784.875 618.255 -773.138 597.477 -763.744 583.042Z" stroke="#5532D5" stroke-width="2"/>
<path d="M-760.622 597.657C-730.517 557.559 -704.584 515.095 -669.86 475.822C-647.381 450.37 -615.386 419.951 -578.598 416.782C-537.083 413.209 -511.505 441.431 -494.18 462.971C-476.331 485.17 -456.572 512.508 -420.206 518.731C-408.627 520.704 -394.847 520.015 -381.263 513.858C-368.231 507.956 -357.179 498.436 -343.953 492.349C-314.257 478.676 -284.543 477.005 -259.52 482.121C-185.506 497.263 -139.382 554.842 -109.787 605.785C-94.9777 631.286 -83.8648 659.789 -72.0909 687.168C-56.8135 722.696 -45.1879 760.291 -44.1513 801.579C-41.9341 889.36 -95.0137 978.055 -174.776 1063.36C-199.883 1090.22 -228.797 1116.07 -244.759 1145.35C-253.009 1160.46 -263.112 1163.67 -279.262 1161.68C-304.506 1158.56 -327.046 1150.25 -350.079 1144.06C-382.836 1135.26 -416.154 1126.19 -451.864 1122.09C-476.479 1119.27 -498.457 1119.73 -526.558 1131.6C-546.595 1140.06 -565.691 1151.09 -585.426 1160.39C-622.92 1178.04 -663.06 1190.19 -700.474 1193.28C-730.144 1195.71 -758.748 1194.93 -786.573 1193.17C-822.64 1190.73 -859.648 1191.7 -897.009 1196.06C-948.656 1202.09 -1039.81 1220.73 -1041.22 1169.12C-1042.77 1112.2 -1007.7 1038.87 -967.242 979.66C-953.657 959.78 -934.871 939.282 -928.058 918.768C-917.893 888.071 -929.355 868.849 -942.029 845.895C-960.992 811.521 -1013.55 742.906 -934.278 698.475C-902.87 680.873 -868.168 673.375 -835.472 660.987C-798.834 647.142 -781.124 625.012 -760.622 597.657Z" stroke="#5532D5" stroke-width="2"/>
<path d="M-756.787 613.149C-714.424 566.6 -650.718 479.33 -575.879 478.236C-536.331 477.646 -509.127 499.994 -489.103 520.272C-472.962 536.574 -458.109 558.763 -426.553 560.487C-403.354 561.751 -380.758 543.186 -356.823 535.44C-327.145 525.837 -298.738 525.528 -274.323 530.89C-206.09 545.871 -161.276 594.095 -131.755 640.878C-101.106 689.471 -85.3911 752.896 -87.6209 815.627C-90.4116 893.849 -132.648 974.42 -199.861 1051.38C-212.272 1065.58 -225.369 1079.49 -238.09 1093.57C-246.618 1103.03 -253.827 1114.06 -263.333 1123.03C-279.179 1137.98 -297.413 1140.57 -314.456 1138.04C-338.988 1134.41 -360.159 1125.05 -381.367 1117.22C-410.382 1106.51 -439.327 1095.17 -470.648 1087.58C-491.714 1082.5 -514.195 1077.4 -541.108 1086.18C-559.466 1092.17 -577.453 1101.17 -594.635 1110.72C-631.471 1131.19 -662.055 1146.3 -702.024 1153.66C-767.668 1165.7 -833.116 1164.79 -891.041 1157.69C-936.502 1152.12 -1007.49 1142.8 -1004.35 1096.72C-1001.57 1055.4 -964.604 1011.89 -937.836 971.012C-924.823 951.141 -914.066 930.931 -908.075 910.827C-900.525 885.479 -902.02 866.324 -909.909 845.503C-923.183 810.46 -948.87 760.721 -894.035 717.641C-873.799 701.738 -849.575 691.24 -828.085 676.946C-799.653 658.072 -778.154 636.631 -756.787 613.149Z" stroke="#5532D5" stroke-width="2"/>
<path d="M-748.486 632.906C-698.373 588.843 -635.592 532.627 -567.903 535.772C-535.112 537.295 -509.832 550.844 -488.4 565.613C-473.046 576.187 -458.184 598.195 -430.648 594.763C-410.391 592.224 -386.91 580.559 -365.808 576.74C-338.161 571.786 -310.849 572.454 -286.033 578.69C-224.089 593.987 -181.176 634.572 -152.008 677.037C-88.6496 769.318 -113.086 911.863 -214.178 1035.12C-244.309 1071.86 -274.449 1114.5 -327.733 1110.92C-385.873 1107 -428.73 1076.61 -477.314 1060.55C-495.866 1054.4 -518.666 1046.11 -543.661 1050.69C-558.687 1053.45 -574.809 1061.9 -588.919 1069.37C-624.867 1088.38 -657.998 1104.02 -696.363 1112.95C-755.65 1126.77 -815.616 1129.87 -868.667 1125.24C-914.929 1121.19 -972.396 1110.76 -965.918 1064.58C-960.906 1029.14 -929.778 991.375 -911.093 955.745C-890.277 916.079 -882.949 877.11 -888.346 841.67C-893.625 807.209 -903.823 771.824 -867.699 732.373C-855.308 718.84 -838.556 702.618 -822.757 691.441C-796.829 673.203 -772.014 653.647 -748.484 632.908L-748.486 632.906Z" stroke="#5532D5" stroke-width="2"/>
</g>
</svg>
