<svg width="416" height="1507" viewBox="0 0 416 1507" fill="none" xmlns="http://www.w3.org/2000/svg">
<g opacity="0.08">
<path d="M1090.51 681.874C1068.33 696.288 1060.61 739.202 1055.1 758.962C1044.21 798.033 1035.85 836.753 1026.97 875.494C1018.09 914.234 1009.33 953 997.41 992.171C989.678 1017.6 981.424 1046.95 963.401 1072.44C924.989 1126.76 890.268 1056.06 878.145 1039.76C847.291 998.312 816.55 947.772 763.336 924.6C731.568 910.766 698.289 918.553 662.236 949.193C650.502 959.143 638.957 973.629 623.755 977.479C607.519 981.593 593.153 976.222 582.455 970.974C543.46 951.817 518.064 917.246 494.338 885.662C468.705 851.635 446.208 815.11 423.132 779.791C413.347 764.815 394.873 754.501 378.853 744.565C357.855 731.537 335.905 719.44 314.241 707.059C266.634 679.792 217.091 652.006 183.761 612.167C162.884 587.217 148.31 554.629 164.036 514.634C171.929 494.554 190.246 474.889 205.743 456.224C224.453 433.662 243.581 411.246 261.614 388.443C319.692 314.994 369.055 231.782 334.739 170.581C329.545 161.323 322.107 153.74 316.052 145.097C312.203 139.589 311.07 133.208 318.837 125.224C338.315 105.187 385.129 98.4506 407.669 93.531C457.009 82.7664 505.794 75.0517 554.874 65.6414C587.338 59.4216 634.147 54.7091 665.557 34.7087C693.543 16.8852 698.209 -20.1141 703.512 -42.0416C708.469 -62.5797 712.145 -96.3719 737.435 -114.59C749.696 -123.425 763.698 -124.795 775.502 -124.408C796.157 -123.708 813.581 -118.79 835.608 -120.38C871.735 -122.999 916.349 -134.498 951.045 -159.7C975.086 -177.164 985.471 -196.903 993.521 -218.683C996.907 -227.837 998.972 -234.827 1009.46 -241.964C1026.1 -253.3 1046.77 -260.564 1064.73 -267.155C1129.01 -290.74 1194.86 -307.819 1258.42 -320.556C1290.19 -326.923 1322.39 -332.439 1352.53 -333.153C1372.3 -333.642 1396.72 -332.854 1405.23 -319.63C1415.1 -304.331 1417.02 -282.636 1420.24 -263.647C1426.24 -228.174 1430.17 -191.839 1433.66 -155.383C1441.74 -71.065 1446.78 14.3687 1448.79 100.918C1450.15 161.911 1452.08 223.857 1442.93 287.938C1441.03 300.704 1437.75 313.54 1433.11 326.252C1428.26 339.989 1429.93 352.075 1432.78 363.58C1450.48 434.992 1507.21 489.131 1554.76 541.627C1566.82 554.955 1578.9 568.272 1590.25 582.117C1600.02 594.017 1614.17 606.676 1615.88 623.257C1619.28 655.92 1559.4 664.093 1534.79 667.093C1448.13 677.662 1365.63 672.381 1283.92 670.875C1245.03 670.187 1206.11 669.315 1166.32 670.608C1145.62 671.263 1109.96 669.237 1090.51 681.874Z" stroke="#8E76E3" stroke-width="2"/>
<path d="M1079.64 673.26C1062.45 698.256 1056.18 726.697 1049.04 751.552C1038.76 787.324 1030.2 822.898 1020.8 858.567C1011.9 892.296 1002.79 926.223 990.02 960.386C982.232 981.217 973.341 1006.79 954.582 1026.38C913.927 1068.85 881.415 1002.47 870.332 988.058C842.793 952.213 814.387 909.76 766.484 891.067C736.574 879.395 704.574 887.321 671.206 915.462C659.661 925.197 650.791 935.036 635.898 939.437C618.663 944.535 603.316 940.584 591.153 935.733C553.047 920.539 527.375 890.077 504.194 861.909C480.246 832.808 456.527 801.695 439.546 769.529C432.753 756.669 417.675 746.55 405.271 737.486C386.179 723.548 366.117 710.504 346.561 696.993C306.815 669.541 267.012 640.75 240.139 602.851C220.738 575.49 208.468 541.826 219.15 501.752C229.992 461.13 263.75 424.425 293.805 386.378C345.785 320.627 407.007 237.622 387.144 175.934C384.136 166.578 378.029 159.661 373.412 151.354C371.034 147.085 368.866 141.878 373.766 135.773C386.486 119.923 425.649 115.588 441.268 112.552C484.432 104.164 527.02 98.5688 569.95 91.2651C604.04 85.4704 643.073 80.817 677.583 64.8139C719.462 45.3932 724.16 -7.33155 743.247 -37.126C776.351 -88.7846 829.228 -65.51 864.485 -59.9643C904.966 -53.5916 964.029 -64.8845 990.482 -111.087C1000.6 -128.758 1003.4 -144.279 1020.96 -160.586C1048.42 -186.089 1086.53 -204.797 1120.05 -220.116C1170.45 -243.132 1222.89 -261.91 1273.85 -274.332C1310.34 -283.223 1368.17 -296.215 1380.89 -268.803C1389.48 -250.363 1392.04 -227.635 1395.12 -206.274C1399.74 -174.292 1402.58 -141.601 1404.84 -108.716C1410.14 -32.8595 1411.87 44.4177 1409.51 122.797C1407.89 176.285 1370.26 346.842 1371.56 357.013C1375.43 387.333 1394.38 412.416 1411.51 435.194C1434.3 465.493 1460.61 493.297 1486.47 521.353C1498.77 534.716 1511.69 547.784 1522.72 562.074C1530.57 572.245 1540.47 585.876 1536.89 601.538C1529.91 632.098 1473.55 639.443 1449.83 642.742C1377.13 652.883 1307.48 651.305 1238.07 652.474C1203.99 653.058 1169.81 653.385 1134.69 656.621C1120.51 657.935 1090.26 657.816 1079.64 673.26Z" stroke="#8E76E3" stroke-width="2"/>
<path d="M1071.9 670.425C1042.13 727.608 1029.1 785.313 1010.39 842.613C1000.99 871.38 979.921 899.515 965.332 928.509C957.747 943.588 948.078 962.541 931.931 974.927C888.73 1008.05 859.018 948.485 846.553 932.964C822.436 902.963 796.438 868.266 754.338 854.097C728.608 845.445 699.599 851.728 671.067 874.862C658.407 885.124 648.327 894.888 632.525 899.735C616.515 904.645 601.812 902.837 589.436 899.384C553.858 889.472 528.661 864.883 506.892 841.921C481.448 815.026 459.259 785.545 440.591 753.832C424.243 726.095 394.559 707.147 369.404 685.996C336.088 657.975 303.721 628.437 282.052 591.742C264.946 562.757 255.427 528.56 263.391 489.207C271.535 449.183 297.91 411.258 328.062 372.953C373.643 315.044 435.943 239.336 429.706 180.858C428.805 172.349 425.302 166.138 421.595 159.154C419.792 155.763 417.196 151.555 421.348 146.62C431.344 134.732 464.676 133.311 475.653 131.833C510.712 127.104 545.239 124.22 580.142 120.038C612.724 116.134 647.049 112.634 680.937 101.404C734.901 83.5054 737.29 27.8483 782.054 0.480229C809.847 -16.511 840.417 -12.2139 862.657 -7.54069C890.022 -1.774 916.365 14.9565 952.164 3.57308C978.832 -4.90312 985.795 -23.1005 998.202 -41.6598C1019.22 -73.1104 1058.21 -99.4892 1092.83 -119.966C1139.6 -147.642 1190.37 -170.6 1239.91 -185.887C1262.37 -192.824 1286.37 -199.046 1307.35 -198.951C1327.01 -198.858 1336.06 -192.611 1341.01 -178.728C1356.14 -136.22 1355.97 -83.3351 1357.18 -33.988C1358.7 28.0106 1357 91.2212 1350.7 155.544C1346.4 199.405 1341.19 244.786 1325.82 290.77C1321.81 302.757 1317.18 315.365 1309.38 327.277C1303.52 336.25 1297.74 342.184 1297.04 351.399C1294.96 378.697 1315.05 401.841 1329.17 420.543C1351.73 450.457 1378.02 477.745 1403.67 505.388C1418.66 521.505 1450.99 549.224 1435.92 579.548C1422.9 605.728 1377.12 613.822 1353.52 618.093C1293.84 628.888 1236.31 630.365 1178.72 634.45C1152.32 636.322 1138.6 640.834 1111.23 645.97C1107.97 646.58 1104.13 647.146 1100.02 648C1095.79 648.876 1091.28 650.114 1087.49 652.09C1079.35 656.348 1075.58 663.387 1071.9 670.425Z" stroke="#8E76E3" stroke-width="2"/>
<path d="M1068.29 658.092C1042.65 709.721 1027.71 761.628 1005.92 813.355C996.149 836.547 985.598 860.41 970.156 883.243C961.853 895.523 950.779 910.015 935.67 917.861C892.304 940.37 866.489 892.269 852.176 875.341C830.951 850.164 807.06 820.919 769.357 810.873C744.661 804.292 719.5 812.085 693.921 832.797C666.486 855.015 640.48 861.707 613.565 856.112C579.837 849.087 554.879 828.846 533.679 809.101C508.264 785.394 486.468 758.593 468.685 729.183C451.438 700.634 426.669 678.175 403.996 653.391C373.937 620.526 346.28 584.434 335.545 539.692C326.2 500.733 332.26 456.186 356.384 410.154C381.551 362.094 424.346 318.724 456.456 272.167C476.483 243.126 502.452 203.897 499.374 175.776C498.348 166.398 485.221 156.564 506.33 150.962C518.402 147.756 531.07 148.162 542.32 147.68C560.499 146.902 578.478 146.614 596.559 146.083C635.102 144.945 675.003 144.616 715.936 135.992C767.484 125.143 784.12 81.085 827.885 56.9029C851.435 43.8868 875.987 42.4173 897.061 44.0302C910.704 45.0661 923.542 47.5489 935.956 50.5337C948.921 53.6443 961.003 59.4349 975.562 60.0517C996.289 60.9431 1010.31 45.7033 1027.48 31.945C1057.74 7.70349 1090.02 -14.1612 1123.83 -33.315C1165.27 -56.7996 1209.85 -77.9274 1253.49 -89.9958C1270.48 -94.6978 1289.08 -98.7709 1303.92 -96.5692C1318.76 -94.3675 1323.67 -85.3489 1326.97 -73.9784C1336.77 -40.2713 1335.35 0.598009 1334.05 39.4149C1332.43 87.9984 1327.64 137.689 1318.31 188.212C1311.87 223.086 1303.84 259.092 1287.84 295.114C1283.18 305.595 1277.79 316.187 1270.77 326.468C1265.95 333.523 1258.39 340.522 1256.03 347.767C1248.67 370.413 1269.67 392.792 1280.14 407.029C1301.02 435.443 1328.35 459.038 1349.49 487.236C1361.02 502.623 1380.17 526.027 1366.6 551.552C1353.85 575.551 1315.95 585.73 1292.44 591.472C1246.24 602.77 1201.25 606.917 1155.98 613.829C1137.35 616.68 1117.66 619.339 1098.45 625.792C1081.35 631.553 1074.86 644.858 1068.29 658.092Z" stroke="#8E76E3" stroke-width="2"/>
<path d="M1065.04 651.556C1041.13 694.908 1023.96 739.656 999.547 783.537C985.249 809.227 961.52 852.893 924.987 863.738C884.853 875.669 861.749 841.889 846.206 823.776C827.704 802.217 805.358 777.303 771.211 770.67C760.414 768.571 748.072 768.812 734.958 774C720.924 779.552 711.786 789.281 699.562 797.669C673.919 815.262 646.437 818.704 623.416 814.642C590.874 808.906 566.016 791.515 544.917 773.552C521.161 753.309 500.813 729.988 484.301 704.081C468.564 679.409 452.021 655.624 435.164 631.638C413.097 600.283 394.122 566.293 387.181 526.544C380.351 487.383 386.707 443.67 408.426 398.538C429.625 354.502 463.105 312.416 498.543 271.609C518.658 248.449 547.815 212.438 549.257 187.232C549.909 176.012 544.698 168.778 564.401 167.544C589.21 165.989 612.707 170.307 635.921 172.07C669.416 174.605 703.63 177.286 739.606 174.339C762.58 172.459 781.78 165.839 803.486 150.943C820.017 139.585 835.258 126.624 852.887 116.827C894.256 93.8286 934.527 96.4989 971.412 98.029C995.136 99.0155 1014.35 101.5 1041.36 92.4612C1073.28 81.7816 1104.99 65.489 1136.46 51.8042C1171.02 36.7836 1207.35 21.7471 1242.12 15.2146C1273.07 9.39364 1291.9 14.458 1297.03 36.9047C1305.05 71.9114 1297.75 116.228 1290.56 156.539C1283.25 197.564 1272.69 240.067 1253.61 282.465C1243.3 305.359 1227.57 326.6 1215.12 349.06C1199.51 377.277 1227.26 400.425 1240.39 416.342C1262.2 442.766 1345.36 516.524 1258.68 560.706C1222.5 579.147 1182.36 585.72 1145.97 595.072C1130.87 598.958 1112.09 602.601 1097.24 610.859C1081.07 619.848 1072.24 638.512 1065.04 651.556Z" stroke="#8E76E3" stroke-width="2"/>
<path d="M1061.43 639.14C1037.96 675.626 1018.24 713.891 990.732 749.953C972.927 773.322 947.222 801.574 915.675 806.61C880.075 812.291 856.237 789.538 839.939 772.035C823.148 753.996 804.387 731.642 772.617 728.548C762.502 727.569 750.654 729.026 739.317 735.189C728.44 741.097 719.499 750.004 708.467 756.084C683.697 769.741 658.161 773.042 636.249 770.193C571.433 761.757 528.03 714.958 499.304 672.85C484.929 651.771 473.556 627.87 461.683 604.981C446.277 575.279 433.892 543.565 430.415 508.002C423.009 432.393 463.263 352.535 526.753 273.931C546.738 249.189 570.071 225.07 582.013 198.804C588.187 185.253 596.703 181.847 610.765 182.554C632.743 183.662 652.714 189.43 672.976 193.328C701.794 198.875 731.111 204.614 762.182 205.914C783.6 206.808 802.537 205.036 826.042 193.038C842.803 184.484 858.592 173.766 875.039 164.512C906.289 146.936 940.167 133.94 972.259 128.927C997.709 124.974 1022.44 123.863 1046.56 123.639C1077.84 123.487 1109.71 120.335 1141.68 114.232C1185.87 105.799 1263.36 84.0149 1267.81 128.454C1272.71 177.477 1247.03 242.954 1215.82 296.575C1205.34 314.58 1190.42 333.444 1185.82 351.572C1178.97 378.697 1190.06 394.566 1202.44 413.581C1220.95 442.057 1270.6 497.977 1204.97 541.278C1178.97 558.432 1149.49 567.073 1122.06 579.808C1091.31 594.048 1077.41 614.253 1061.43 639.14Z" stroke="#8E76E3" stroke-width="2"/>
<path d="M1057.15 626.011C1023.51 668.83 973.994 748.122 909.482 753.749C875.393 756.732 850.519 739.15 831.972 722.905C817.023 709.848 802.818 691.629 775.479 692.117C755.382 692.477 737.045 709.911 716.875 718.093C691.867 728.237 667.373 730.281 645.97 727.181C586.153 718.523 544.465 679.714 516.063 641.191C486.575 601.177 469.046 547.43 467.045 493.159C464.559 425.485 495.964 353.316 549.148 282.697C558.969 269.666 569.401 256.845 579.496 243.899C586.264 235.209 591.795 225.234 599.436 216.897C612.174 203.007 627.747 199.636 642.612 200.751C664.008 202.346 682.863 209.1 701.653 214.532C727.361 221.955 753.047 229.927 780.55 234.516C799.047 237.588 818.764 240.577 841.439 231.316C856.906 225.001 871.864 216.109 886.093 206.795C916.598 186.823 942.044 171.876 976.074 163.024C1031.97 148.526 1088.5 145.214 1138.93 147.712C1178.51 149.674 1240.35 153.281 1240.52 193.24C1240.71 229.071 1211.53 268.929 1190.99 305.876C1181 323.837 1172.99 341.95 1169.07 359.673C1164.14 382.019 1166.63 398.455 1174.74 415.927C1188.39 445.336 1213.67 486.649 1169.05 527.255C1152.58 542.244 1132.33 552.819 1114.68 566.498C1091.33 584.564 1074.12 604.411 1057.15 626.011Z" stroke="#5532D5" stroke-width="2"/>
<path d="M1048.75 609.481C1008.27 650.64 957.608 703.077 899.002 704.598C870.61 705.336 847.948 695.226 828.53 683.823C814.619 675.659 800.417 657.598 776.871 662.282C759.549 665.74 740.017 677.276 722.047 681.892C698.499 687.896 674.89 689.029 653.085 685.2C598.676 675.876 559.105 643.539 531.279 608.721C470.832 533.054 482.999 408.521 562.521 295.836C586.223 262.244 609.564 223.564 655.767 223.318C706.182 223.065 745.066 246.604 787.995 257.429C804.389 261.571 824.582 267.3 845.864 261.779C858.658 258.463 872.041 250.165 883.749 242.835C913.58 224.178 941.191 208.61 973.737 198.501C1024.03 182.872 1075.58 176.441 1121.65 177.122C1161.83 177.718 1212.07 183.118 1209.37 223.38C1207.26 254.27 1182.76 288.809 1168.87 320.723C1153.39 356.254 1149.5 390.339 1156.38 420.584C1163.09 449.99 1174.1 479.886 1145.4 516.19C1135.55 528.643 1122.11 543.689 1109.18 554.323C1087.95 571.683 1067.76 590.111 1048.75 609.48L1048.75 609.481Z" stroke="#5532D5" stroke-width="2"/>
<path d="M1037.93 591.991C993.304 627.748 943.815 660.455 891.426 661.957C866.982 662.654 845.812 657.255 825.718 650.949C810.935 646.311 797.241 640.502 778.769 641.831C761.664 643.057 743.594 647.26 726.315 648.941C704.126 651.238 682.44 650.28 662.088 646.105C612.854 635.68 575.432 608.499 548.189 576.971C534.993 561.717 522.011 544.304 517.703 523.471C513.537 503.355 513.104 481.084 515.025 458.878C519.086 411.68 537.173 361.377 569.533 312.486C591.734 278.959 617.096 252.208 659.822 249.502C707.983 246.456 747.535 264.885 787.008 275.644C814.082 283.021 842.213 292.717 877.804 274.39C906.127 259.81 932.776 245.611 962.313 236.114C1005.94 222.194 1049.11 215.256 1089.28 215.711C1125.92 216.189 1161.59 223.692 1163.61 256.892C1165.2 283.209 1150.5 313.901 1143.98 342.001C1136.66 373.344 1139.26 400.912 1144.67 428.22C1149.5 452.78 1149.42 478.893 1132.19 507.901C1128.66 514.082 1124.67 520.108 1120.26 525.929C1114.5 533.247 1107.03 537.787 1099.06 543.642C1077.99 559.076 1058.13 575.806 1037.93 591.991Z" stroke="#5532D5" stroke-width="2"/>
</g>
</svg>
